<svg transform="scale(1)" id="_0421_Bear_Market" xmlns="http://www.w3.org/2000/svg" viewBox="0 0 500 500" class="show_show__wrapper__graphic__5Waiy "><title>React</title><defs><style>.cls-1{fill:#fff;}.cls-2{fill:#f5d94a;}.cls-3{opacity:.22;}.cls-4{opacity:.11;}.cls-5{opacity:.77;}.cls-6{fill:#231f20;}</style></defs><g id="chart"><g><path class="cls-2" d="M354.67,484.82c-.04-51.96-.6-105.81-1.68-157.75-.02-1.05-47.29-2.24-68.9,.37,.53,51.44,.31,102.89-.66,154.32"></path><path class="cls-2" d="M357.01,483.96c-.02-19.36-.1-38.71-.26-58.07-.16-19.49-.38-38.98-.68-58.47-.15-9.64-.31-19.27-.5-28.91-.05-2.41-.09-4.83-.14-7.24-.02-1.2-.05-2.41-.07-3.61-.01-.51,.21-1.27-.21-1.64s-1.51-.35-2.02-.4c-3.51-.37-7.07-.46-10.6-.57-5.68-.18-11.37-.26-17.06-.28-12.09-.04-24.25,.08-36.3,1.19-1.21,.11-2.41,.24-3.61,.38-.93,.11-3.84,.68-3.82,1.97,.21,20.06,.3,40.12,.28,60.18-.02,20.06-.16,40.12-.41,60.18-.14,11.32-.32,22.64-.53,33.96-.01,.58,4.67-.27,4.69-1.72,.38-20.06,.65-40.12,.8-60.17,.15-20.06,.19-40.12,.11-60.18-.04-11.32-.13-22.64-.24-33.96-1.27,.66-2.55,1.31-3.82,1.97,11.59-1.39,23.36-1.52,35.02-1.57,9.93-.04,19.93-.04,29.85,.67,1.03,.07,2.04,.17,3.06,.32,.37,.05,.08,.09,.1-.05-.22,2.1,.09,4.4,.13,6.51,.19,9.62,.36,19.24,.52,28.85,.31,19.24,.55,38.48,.72,57.71,.17,19.23,.27,38.46,.3,57.69,0,2.33,0,4.66,0,6.99,0,.61,4.69-.29,4.69-1.72h0Z"></path></g><g><path class="cls-2" d="M466.88,484.82c-.04-33.73-.6-68.69-1.68-102.41-.02-.68-47.29-1.45-68.9,.24,.53,33.39,.31,66.8-.66,100.18"></path><path class="cls-2" d="M469.11,485.94c-.04-32.05-.53-64.1-1.48-96.14-.06-1.93-.11-3.86-.18-5.79-.05-1.38-1.47-1.95-2.63-2.44-.86-.36-1.72-.52-2.63-.59-2.51-.21-5.03-.25-7.55-.32-9.23-.25-18.47-.3-27.71-.25-10.9,.06-21.84,.17-32.71,1.02l-.15,.1c.41,26.08,.37,52.17-.13,78.26-.14,7.31-.32,14.62-.53,21.93-.02,.74,1.43,1.37,1.97,1.65,.16,.08,2.48,1.07,2.49,.6,.65-22.26,.97-44.52,.94-66.79,0-5.48-.03-10.97-.08-16.45-.02-2.82-.05-5.65-.09-8.47-.02-1.33-.03-2.66-.05-3.99,0-.66-.02-1.33-.03-1.99,0-.5-.25-1.78,0-2.2,.37-.61,3.25-.43,4.08-.48,1.49-.09,2.98-.16,4.47-.22,3.35-.14,6.71-.24,10.06-.31,13.24-.29,26.49-.29,39.73,.04,3.23,.08,6.48,.12,9.69,.44,.3,.03-.31-.07-.19-.03-.61-.17-3.59-1.22-3.44-1.73-.16,.54,.04,1.36,.06,1.93,.03,.8,.05,1.61,.07,2.41,.08,2.66,.16,5.33,.23,8,.15,5.44,.29,10.89,.41,16.33,.5,21.76,.78,43.52,.86,65.29,0,2.66,.02,5.32,.02,7.97,0,.75,1.41,1.37,1.97,1.65,.16,.08,2.5,1.06,2.49,.6h0Z"></path></g><g><path class="cls-2" d="M234.91,484.82c-.04-67.46-.6-137.38-1.68-204.83-.02-1.37-47.29-2.91-68.9,.48,.53,66.79,.31,133.59-.66,200.37"></path><path class="cls-2" d="M237.26,483.96c-.01-22.46-.08-44.91-.21-67.36-.13-22.64-.31-45.27-.55-67.91s-.53-44.76-.88-67.15c-.01-.64,.24-1.93-.06-2.46-.09-.17-.22-.2-.36-.27-.38-.2-.95-.25-1.37-.32-1.57-.25-3.17-.36-4.76-.47-5.69-.4-11.4-.54-17.11-.63-14.06-.23-28.3-.19-42.28,1.45-1.46,.17-2.93,.36-4.38,.59-.82,.13-3.32,.78-3.31,1.91,.21,26.15,.3,52.3,.28,78.45-.02,25.98-.16,51.97-.41,77.95-.14,14.66-.32,29.31-.53,43.97,0,.59,4.67-.28,4.69-1.72,.38-26.15,.65-52.29,.8-78.44,.15-25.98,.18-51.97,.11-77.95-.04-14.66-.13-29.31-.24-43.97-1.1,.64-2.2,1.27-3.31,1.91,6.18-.96,12.53-1.34,18.81-1.61,7.27-.31,14.55-.41,21.83-.36,6.1,.04,12.2,.17,18.28,.49,2,.11,3.99,.23,5.98,.43,.63,.06,1.26,.13,1.88,.24,.21,.04,.42,.07,.62,.12-.39-.09,.11-.04,.14,.06,.01,.04-.05-.4-.03,.44,.03,1.45,.05,2.89,.07,4.34,.04,2.74,.08,5.48,.13,8.22,.08,5.5,.16,10.99,.24,16.49,.15,11.14,.29,22.28,.41,33.42,.25,22.31,.44,44.61,.57,66.92,.14,22.25,.22,44.5,.25,66.75,0,2.73,0,5.47,0,8.2,0,.61,4.69-.29,4.69-1.72h0Z"></path></g><g><path class="cls-2" d="M112.59,484.82c-.04-83.01-.6-169.03-1.68-252.01-.02-1.68-47.29-3.58-68.9,.59,.53,82.17,.31,164.36-.66,246.52"></path><path class="cls-2" d="M114.94,483.96c-.01-25.46-.07-50.93-.18-76.39s-.27-51.53-.47-77.29c-.2-25.56-.45-51.11-.76-76.67-.07-6.33-.15-12.66-.23-18.99,0-.64,.26-2.16-.06-2.74-.09-.17-.26-.24-.42-.32-.49-.26-1.18-.33-1.72-.42-5.06-.87-10.32-.94-15.44-1.12-15.94-.56-32.17-.59-48,1.58-1.57,.21-3.13,.46-4.68,.76-.82,.16-3.31,.76-3.31,1.91,.21,32.12,.3,64.23,.28,96.35-.02,32.03-.16,64.06-.41,96.1-.14,18.03-.32,36.05-.53,54.08,0,.59,4.68-.28,4.69-1.72,.38-32.11,.65-64.23,.8-96.34,.15-32.03,.19-64.07,.11-96.1-.04-18.03-.13-36.06-.24-54.09-1.1,.64-2.2,1.27-3.31,1.91,7.18-1.37,14.54-1.83,21.83-2.14,8.14-.35,16.29-.4,24.44-.22,5.93,.13,11.91,.31,17.81,.96,.81,.09,1.62,.19,2.42,.33,.26,.05,.52,.1,.78,.17-.38-.11,.16,.02,.25,.11,.12,.13-.01,0-.04-.07,.09,.2,.03,.11,.04,.56,.03,1.62,.04,3.24,.06,4.86,.04,3.08,.08,6.16,.12,9.25,.31,25.36,.57,50.73,.78,76.09s.38,50.87,.49,76.31c.12,25.26,.19,50.52,.21,75.78,0,3.08,0,6.16,0,9.23,0,.61,4.69-.29,4.69-1.72h0Z"></path></g><path class="cls-6" d="M477.29,482.53c-59.92-1.09-119.83-2.17-179.76-2.78-59.61-.6-119.23-.71-178.84,.13-33.58,.48-67.14,1.35-100.7,2.35-2.37,.07-2.08,2.88-1.23,4.31,1.21,2.03,3.56,3.6,5.96,3.53,59.85-1.77,119.69-2.85,179.57-2.95,59.62-.09,119.24,.57,178.85,1.5,33.63,.52,67.25,1.13,100.88,1.74,2.39,.04,2.04-2.95,1.23-4.31-1.25-2.11-3.53-3.49-5.96-3.53h0Z"></path></g><g id="honey"><g><path class="cls-2" d="M413.05,336.01c-1.88,1.08-3.28,2.95-3.8,5.05-.24,.99-.3,2.05-.74,2.97-.36,.75-.94,1.36-1.36,2.07-1.37,2.3-.67,5.6,1.51,7.15-2.71,1.6-2.68,6.26,.06,7.82-1.25,2.08-.77,4.88,.65,6.85,1.41,1.98,3.59,3.26,5.81,4.25,7.41,3.29,15.79,3.76,23.85,3,2.84-.27,5.74-.7,8.27-2.02s4.68-3.67,5.08-6.5c.18-1.25,.02-2.59,.58-3.73,.54-1.1,1.64-1.8,2.43-2.74,1.71-2.02,1.75-5.26,.09-7.31,1.29-2.27,2.44-5.2,.92-7.32-.86-1.21-2.51-1.98-2.66-3.46-.08-.8,.33-1.62,.11-2.4-.29-.98-1.43-1.4-2.42-1.65-12.28-3.15-25.28-3.45-37.69-.88"></path><path class="cls-2" d="M411.49,335.23c-1.69,1.03-3.16,2.56-4,4.37s-.8,3.91-2.03,5.62c-2.03,2.84-1.92,6.87,1.01,9.12,.21-.62,.41-1.24,.62-1.86-3.53,2.27-3.92,7.63-.23,9.93l-.42-1.36c-2.71,4.96,1.33,9.66,5.6,11.85,4.84,2.49,10.34,3.62,15.73,4,5.49,.4,11.42,.23,16.76-1.19,4.7-1.24,9.77-4.58,10.31-9.83,.14-1.33-.01-2.64,.96-3.69,.95-1.03,2.02-1.86,2.63-3.16,1.12-2.4,.82-5.11-.76-7.22l.08,1.11c1.7-3.06,2.81-6.67-.04-9.39-.47-.45-1.1-.89-1.39-1.48-.39-.78,.05-1.68,0-2.51-.12-1.72-1.73-2.46-3.19-2.89-7.92-2.31-16.6-3-24.81-2.69-4.82,.18-9.62,.74-14.34,1.71-.92,.19-2.52,.71-2.64,1.86s1.42,1.29,2.18,1.14c9.44-1.93,19.18-2.23,28.71-.74,2.32,.36,4.62,.82,6.9,1.38,.63,.15,1.91,.28,2.26,.95,.42,.78-.22,2.01,.01,2.9,.45,1.69,2.26,2.33,2.98,3.81,.93,1.91-.26,4.22-1.19,5.88-.22,.39-.18,.77,.08,1.11,1.12,1.49,1.34,3.66,.44,5.31-.4,.72-1.05,1.23-1.63,1.81-.81,.8-1.46,1.69-1.77,2.8-.57,2.03-.15,3.97-1.41,5.81-1.05,1.54-2.65,2.54-4.4,3.09-4.08,1.29-8.82,1.29-13.06,1.15-4.56-.16-9.16-.92-13.41-2.63-2.2-.89-4.42-1.97-5.99-3.8-1.49-1.73-2.2-4.28-1.06-6.37,.31-.57,.09-1.04-.42-1.36-1.76-1.1-2.17-4.53-.34-5.71,.45-.29,1.31-1.34,.62-1.86-1.08-.83-1.76-1.93-1.95-3.29-.21-1.6,.48-2.68,1.35-3.94,1.03-1.49,1-3.13,1.58-4.78,.51-1.46,1.49-2.58,2.8-3.38,.8-.49,1.21-1.56,.28-2.11-1.02-.61-2.53,0-3.42,.53h0Z"></path></g><g><path class="cls-6" d="M448.2,294.42c-5.79,17.92-12.07,35.67-18.85,53.24-.59,1.53,4.04,3.41,4.62,1.9,6.77-17.57,13.06-35.32,18.85-53.24,.52-1.6-4.14-3.39-4.62-1.9h0Z"></path><g><path class="cls-2" d="M437.11,344.73c-1.92-1.34-4.29-2.03-6.63-1.91-.64,.03-1.3,.13-1.84,.47-.51,.33-.87,.85-1.2,1.36-2.25,3.54-3.79,7.53-4.5,11.67-.38,2.22-.47,4.68,.84,6.51,1.16,1.63,3.15,2.39,5.03,3.07,.65,.23,1.32,.47,2.01,.49,2.19,.05,3.8-2.01,4.8-3.97,2.11-4.14,3.22-8.77,3.23-13.41,0-.56-.02-1.13-.15-1.68-.41-1.64-1.97-2.93-3.67-3"></path><path class="cls-2" d="M438.58,343.27c-2.35-1.58-5.1-2.37-7.93-2.38-1.42,0-2.89,.25-4.03,1.15-1,.79-1.64,1.95-2.27,3.03-1.37,2.4-2.41,4.97-3.16,7.63-.69,2.42-1.22,5.03-.9,7.56,.33,2.53,1.9,4.58,4.08,5.83s5,2.46,7.47,2.16c5.26-.65,7.42-7.25,8.53-11.6,.72-2.83,1.3-6.17,.84-9.09-.45-2.86-3.16-4.89-5.94-5.14-1.08-.09-2.56,.27-2.74,1.55-.17,1.2,1.14,2.14,2.21,2.24,1.19,.1,1.58,1.25,1.6,2.44,.04,1.96-.21,3.95-.6,5.87s-1.01,3.88-1.84,5.72c-.6,1.34-1.31,3.01-2.56,3.9-1,.71-2.5-.24-3.48-.69-1.34-.62-2.27-1.5-2.58-2.99-.37-1.79,.03-3.7,.43-5.45,.43-1.88,1.04-3.71,1.83-5.47,.46-1.02,.97-2.02,1.53-2.99,.33-.57,.76-1.56,1.32-1.79,.68-.27,1.9,0,2.56,.17,.97,.24,1.82,.69,2.65,1.24,.98,.66,2.62,.66,3.48-.21s.39-2.09-.53-2.71h0Z"></path></g><g class="cls-5"><path class="cls-1" d="M437.11,344.73c-1.92-1.34-4.29-2.03-6.63-1.91-.64,.03-1.3,.13-1.84,.47-.51,.33-.87,.85-1.2,1.36-2.25,3.54-3.79,7.53-4.5,11.67-.38,2.22-.47,4.68,.84,6.51,1.16,1.63,3.15,2.39,5.03,3.07,.65,.23,1.32,.47,2.01,.49,2.19,.05,3.8-2.01,4.8-3.97,2.11-4.14,3.22-8.77,3.23-13.41,0-.56-.02-1.13-.15-1.68-.41-1.64-1.97-2.93-3.67-3"></path><path class="cls-1" d="M439.17,343.46c-4.58-3.08-11.17-2.72-14.2,2.27-1.36,2.24-2.46,4.66-3.26,7.15s-1.41,4.98-1.27,7.49c.13,2.35,1.16,4.21,3.2,5.42,1.98,1.18,4.67,2.27,7,1.75,5.37-1.21,7.84-6.25,9.26-11.08,.82-2.81,1.3-5.81,1.2-8.75-.08-2.58-1.68-4.51-4.33-4.74-1.1-.1-2.37,.57-3.21,1.22-.41,.31-1.4,1.35-.29,1.45,4.34,.38,3.38,6.11,2.89,9.03-.62,3.69-1.84,7.47-4.13,10.47,.15-.2-.3,.33-.34,.31,.01,0,.86-.41,.86-.41-.03,.12-1.17-.23-1.3-.28-.86-.28-1.73-.61-2.54-1-1.65-.77-2.96-1.9-3.49-3.7-.51-1.77-.23-3.67,.12-5.44,.4-1.99,.98-3.94,1.75-5.82,.44-1.07,.94-2.1,1.49-3.11,.27-.49,.56-.97,.85-1.45,.1-.15,.23-.32,.31-.48,.38-.45,.25-.43-.39,.04-.69,.27-.83,.38-.43,.33,.43,.14,1.07,0,1.54,.06,.54,.06,1.07,.17,1.59,.33,1.07,.33,2.05,.82,2.97,1.44,1.09,.73,5.13-1.85,4.14-2.52h0Z"></path></g></g><g><path class="cls-6" d="M439.31,320.72c-4.59-.2-9.18-.4-13.77-.6-4.54-.2-9.35-.85-13.87-.13-2.99,.47-7.52,2.49-6.86,6.32,.67,3.87,6.2,4.16,9.06,2.95,.87-.37-.3-.72-.65-.79-1.06-.2-2.23-.17-3.28,.08-4.83,1.14-8.85,5.02-9.63,10.02-.13,.83-.31,1.12-.94,1.68-.5,.44-1,.9-1.45,1.4-.84,.93-1.6,2.04-1.9,3.27-.52,2.13,.42,4.42,2.51,5.24v-.62c-3.92,2.33-3.82,8.25,.18,10.44l-.26-.47c-2.84,4.79-.83,10.88,3.15,14.39,4.87,4.3,11.78,5.5,17.99,6.42,7.46,1.11,15.02,1.46,22.56,1.12,6.22-.28,13.07-.88,18.28-4.63,4.61-3.31,7.2-10.17,3.65-15.14l-.25,.48c3.82-1.78,4.93-7.29,1.7-10.2l-.25,.48c2.31-1.02,3.96-3.58,3.19-6.14-.85-2.83-3.64-3.87-6.33-4.06l1.84,.58c1.24-2.4,.37-5.24-1.35-7.18-2-2.25-5.03-3.31-7.79-4.28v.62c3.06-1.61,2.98-5.71,.82-8.1-3.05-3.37-9.12-3-13.18-2.55-.38,.04-2.05,.1-1.74,.77,.28,.6,2.64,.45,3.08,.4,2.78-.31,5.88-.21,7.55,2.44,1.18,1.87,1.41,5.26-.85,6.45-.36,.19-.46,.46,0,.62,2.61,.91,5.4,1.86,7.28,3.99,1.65,1.86,2.35,4.57,1.17,6.85-.2,.39,1.79,.57,1.84,.58-.26-.04-.2,0,.18,.11,.23,.09,.45,.21,.65,.36,.38,.26,.72,.58,1.01,.94,.59,.72,.93,1.59,.98,2.52,.1,1.88-.96,3.72-2.69,4.49-.17,.07-.48,.27-.25,.48,2.69,2.43,2.19,7.66-1.21,9.24-.24,.11-.42,.24-.25,.48,2.83,3.96,1.34,9.51-1.77,12.84-3.76,4.02-9.53,4.95-14.76,5.27-6.24,.39-12.52,.15-18.72-.66-5.62-.74-11.82-1.62-16.49-5.08-4.32-3.21-7.24-9.57-4.24-14.62,.16-.27,0-.34-.26-.47-3.15-1.72-3.27-7.35-.18-9.19,.35-.21,.47-.44,0-.62-1.88-.73-2.28-3.19-1.74-4.92,.37-1.2,1.19-2.21,2.06-3.08,.43-.43,.88-.83,1.34-1.23,.62-.53,.67-.6,.76-1.39,.52-4.38,3.88-8.46,8.22-9.48l-3.93-.71c3.01-1.29,2.68,.57,1.77-.2-.21-.18-.44-.32-.63-.53-.41-.43-.72-.95-.85-1.53-.27-1.21,.19-2.48,.96-3.41,1.93-2.31,4.56-2.07,7.27-1.96,6.64,.29,13.28,.58,19.91,.87,.56,.02,2.78,.2,3.07-.46s-1.43-.73-1.75-.74h0Z"></path><path class="cls-6" d="M418,330.18c9.42,2.37,19.25,3.1,28.91,2.08,.89-.09,.92-.53,.13-.89-1.01-.46-2.39-.64-3.5-.52-8.08,.85-16.17,.3-24.05-1.69-.55-.14-2.72-.62-3.11-.02-.4,.62,1.29,.95,1.61,1.03h0Z"></path><path class="cls-6" d="M402.9,341.68c3.65,1.58,7.49,2.68,11.43,3.21,1.95,.26,3.91,.39,5.88,.38,2,0,3.98-.12,5.9,.56,.24,.08,.95-.15,1.14-.2,.62-.16,1.24-.35,1.84-.56,.26-.09,1.82-.75,1.56-.84-1.79-.63-3.63-.59-5.5-.57-1.96,.02-3.92-.08-5.86-.32-4.01-.5-7.92-1.58-11.63-3.18-.61-.26-1.87,.33-2.46,.51s-1.13,.37-1.66,.61c-.07,.03-.68,.38-.64,.4h0Z"></path><path class="cls-6" d="M438.17,347.49h3.01c.36,0,.48-.29,.5-.6,0-.24-.03-.47-.11-.69-.07-.28-.17-.55-.3-.81-.29-.57-.64-1.14-1.1-1.59l-.39-.35c-.2-.17-.44-.28-.7-.32h-3.01c-.36,0-.48,.29-.5,.6,0,.24,.03,.47,.11,.69,.07,.28,.17,.55,.3,.81,.29,.57,.64,1.14,1.1,1.59l.39,.35c.2,.17,.44,.28,.7,.32h0Z"></path><path class="cls-6" d="M450.05,347.11c3.93,.34,7.9,.08,11.75-.78,.75-.17-1.09-1.41-1.21-1.48-.55-.32-1.14-.62-1.75-.81-.37-.12-.8-.27-1.2-.18-3.67,.82-7.42,1.06-11.16,.74-1.08-.09,.16,1,.41,1.17,.9,.62,2.04,1.24,3.16,1.33h0Z"></path><path class="cls-6" d="M414.93,356.4c14.03,2.34,28.3,.97,42.27-1.09,.87-.13,1.75-.81,1.11-1.69-.67-.92-2.34-1.03-3.34-.88-13.14,1.94-26.53,3.23-39.72,1.04-.78-.13-2.49-.02-2.64,1.02s1.63,1.5,2.32,1.61h0Z"></path><path class="cls-6" d="M409.73,363.48c3.08,1.01,6.38,1.38,9.61,1.07,.29-.03,.81-.16,.91-.51s-.27-.73-.5-.91c-.91-.71-2.24-1.09-3.4-.98-.32,.03-.63,.05-.95,.07-.54,.03,.29,0-.13,0-.15,0-.29,0-.44,0-.29,0-.59-.01-.88-.03-.15,0-.29-.02-.44-.03-.1,0-.2-.02-.29-.03,.33,.04,.41,.05,.24,.03-.61-.08-1.21-.18-1.81-.3-.53-.11,.6,.16,.08,.02-.14-.04-.28-.07-.43-.11-.33-.09-.66-.19-.98-.3-.52-.17-1.23-.27-1.78-.2-.29,.04-.81,.15-.91,.51s.26,.72,.5,.91c.48,.37,1.04,.6,1.61,.78h0Z"></path></g></g><g id="arrow"><path class="cls-2" d="M54.95,172.66c20.52-35.94,45-70.08,75.5-98.24,30.3-27.98,67.16-49.87,108.16-57.13,19.06-3.37,39.25-4.02,58.03,1.29,9.4,2.66,18.36,6.89,26.1,12.89,7.22,5.6,16.68,16,7.81,24.55-4.92,4.75-14.39,9.9-20.24,3.6-6.74-7.26-1.06-19.26,7.17-22.32,9.65-3.59,20.87-4.11,31-2.9,10.57,1.25,20.85,4.71,30.05,10.05,16.77,9.72,29.85,24.88,40.03,41.16,11.7,18.69,19.83,39.37,27.27,60.05,1.84,5.13,3.64,10.27,5.44,15.42l4.49-2.19c-6.81-6.24-13.62-12.47-20.42-18.71-.7-.64-4.74,1.86-4.49,2.19,6.96,9.33,14.65,18.08,23.06,26.13,.66,.63,4.15-1.35,4.47-2.04,5-11.06,8.57-22.69,10.72-34.63,.11-.6-1.62,.16-1.82,.25-.52,.22-2.49,.94-2.62,1.64-2.15,11.94-5.72,23.57-10.72,34.63,1.49-.68,2.98-1.36,4.47-2.04-8.4-8.05-16.09-16.8-23.06-26.13-1.5,.73-3,1.46-4.49,2.19,6.81,6.24,13.62,12.47,20.42,18.71,.59,.54,4.73-1.51,4.49-2.19-7.99-22.83-16-45.86-27.77-67.08-10.14-18.27-23.44-35.64-41.13-47.18-18.4-11.99-41.11-16.13-62.46-10.68-8.89,2.27-19.12,7.01-21.13,16.92-.84,4.12-.07,8.75,3.23,11.63,2.82,2.46,6.68,2.66,10.2,1.93,4.1-.85,8.02-2.71,11.55-4.91,3.7-2.31,8.22-5.53,9.81-9.75,3.83-10.22-8.5-19.28-15.76-23.96-17.28-11.15-38.32-14.18-58.52-13.22-43.45,2.05-84.98,21.24-118.95,47.66-34.92,27.15-62.87,62.42-85.84,99.98-2.9,4.74-5.72,9.53-8.47,14.35-.3,.53,1.73-.21,1.82-.25,.78-.33,2.16-.84,2.62-1.64h0Z"></path></g><g id="bear"><g><path class="cls-6" d="M206.89,96.87c3.82-6.1,.6-15.03-5.8-18.31-6.4-3.29-14.69-1.4-19.98,3.49-5.29,4.89-7.83,12.22-8.11,19.42-.08,2.08,0,4.18,.53,6.2,1.23,4.73,4.95,8.74,9.58,10.31,4.63,1.56,10.03,.64,13.87-2.38"></path><path class="cls-6" d="M208.33,96.64c3.22-5.34,1.42-12.39-2.96-16.51-5.14-4.84-13.16-4.63-19.3-2.01-6.8,2.9-11.36,8.98-13.32,16s-2.14,15.33,3.32,20.8c5.87,5.87,15.62,5.66,22.04,.76,.47-.36,.33-.62-.2-.73-.59-.12-1.57,.19-2.05,.55-5.35,4.09-12.62,2.97-17.21-1.74-4.77-4.89-4.86-12.08-3.48-18.4,1.36-6.22,4.72-12.45,10.4-15.69,5.15-2.94,11.94-2.92,16.57,1.04s6.52,11.06,3.3,16.4c-.3,.49,1.03,.38,1.18,.36,.57-.09,1.37-.31,1.69-.84h0Z"></path></g><g><path class="cls-6" d="M261.57,200.38c-8.92,23.42-26.81,43.29-49.17,54.61,4.73,8.28,8.4,17.15,10.9,26.35-1.5,.91-3.57,.72-4.89-.43,1.32,1.54-1.6,3.15-3.63,3.12-5.25-.09-10.8-.26-15.25-3.04-2.57-1.61-4.57-3.97-6.39-6.39-11.99-15.89-18.28-35.98-17.51-55.87,.77-19.89,8.61-39.43,21.8-54.34"></path><path class="cls-6" d="M260.12,200.57c-6.94,18.11-19.18,34.03-34.79,45.52-4.36,3.21-9,6.04-13.83,8.49-.19,.09-.72,.5-.56,.79,4.72,8.3,8.38,17.14,10.9,26.35l.56-.79c-.87,.47-1.95-.02-2.65-.58-.65-.52-3.42,.13-2.7,1.12,1.39,1.91-3.11,1.74-3.8,1.72-2.46-.07-4.93-.23-7.34-.78-4.94-1.13-8.32-4.28-11.31-8.21-5.89-7.76-10.39-16.55-13.37-25.82-5.92-18.43-5.51-38.39,1.19-56.55,3.71-10.05,9.27-19.37,16.35-27.42,.47-.53-.4-.79-.77-.81-.69-.03-1.46,.26-1.92,.78-13.58,15.43-21.57,35.67-21.95,56.23-.19,10.38,1.47,20.75,4.88,30.55,1.71,4.93,3.87,9.71,6.43,14.26,2.49,4.42,5.3,8.85,8.7,12.62,1.9,2.11,4.14,3.86,6.79,4.91,2.63,1.04,5.44,1.47,8.25,1.68,2.59,.19,5.51,.57,7.99-.38,1.52-.58,3.92-2.06,2.57-3.91l-2.7,1.12c2.08,1.66,4.87,1.5,7.13,.27,.25-.13,.65-.45,.56-.79-2.52-9.2-6.19-18.05-10.9-26.35l-.56,.79c17.59-8.95,32.49-23.05,42.46-40.08,2.83-4.83,5.26-9.9,7.26-15.13,.34-.9-2.53-.56-2.89,.38h0Z"></path></g><g><path class="cls-6" d="M354.03,230.71c-3.82,10.19-5.86,21.05-6.02,31.93,5.07-3.29,8.62-9.4,14.59-10.35,3.91-.62,7.95,1.35,10.47,4.4,2.53,3.05,3.71,7.03,4.08,10.98,.63,6.81-1.05,13.81-4.71,19.59-.99-.6-1.58-1.8-1.45-2.95-.72,1.1-1.56,2.28-2.83,2.59-1.28,.31-2.87-.98-2.29-2.16-.8,.59-1.61,1.18-2.41,1.76-1.44-1.34-2.03-3.51-1.47-5.4-2.54-1.56-5.34,1.36-7.37,3.54-7.55,8.14-22.03,8.31-29.77,.34-4.55-4.69-6.61-11.26-7.65-17.71-1.74-10.68-1.11-21.73,1.82-32.14"></path><path class="cls-6" d="M352.58,230.9c-3.8,10.22-5.84,21.02-6.02,31.93-.02,1.04,1.85,.55,2.34,.23,2.87-1.91,5.17-4.45,7.75-6.71,2.72-2.38,5.74-4.09,9.43-2.95,8.34,2.56,10.36,12.88,9.59,20.44-.48,4.76-2.05,9.35-4.58,13.41,.9-.18,1.8-.36,2.69-.54-.88-.61-1.41-1.48-1.35-2.58,.06-1.23-2.41-.41-2.79,.17-.26,.39-.98,1.73-1.47,1.77-.73,.06-1.04-.99-.86-1.51,.4-1.15-2.31-.25-2.61-.04-.8,.59-1.61,1.18-2.41,1.76,.84-.11,1.67-.22,2.51-.34-1.35-1.35-1.84-3.17-1.37-5.02,.06-.24-.1-.4-.29-.5-2.59-1.4-5.54,.12-7.53,1.86-2.04,1.78-3.62,3.86-5.99,5.26-4.33,2.57-9.66,3.11-14.51,1.92-13.1-3.2-16.49-17.88-17.26-29.57-.55-8.39,.37-16.83,2.62-24.93,.28-1.01-2.63-.59-2.89,.37-2,7.17-2.93,14.6-2.77,22.05,.15,6.9,1.02,14.17,3.77,20.57,2.26,5.26,6.01,9.71,11.36,11.95,4.9,2.05,10.51,2.29,15.62,.91,2.9-.78,5.64-2.09,8.02-3.93,1.19-.92,2.17-2.02,3.22-3.09,1.03-1.04,2.47-2.84,4.03-1.99l-.29-.5c-.54,2.1,.04,4.24,1.57,5.77,.63,.63,1.93,.08,2.51-.34,.8-.59,1.61-1.18,2.41-1.76l-2.61-.04c-.64,1.84,1.53,2.89,3.06,2.81,2.21-.12,3.72-1.68,4.87-3.41l-2.79,.17c-.07,1.36,.42,2.54,1.55,3.33,.71,.49,2.22,.22,2.69-.54,4.74-7.6,6.69-17.86,3.37-26.4-1.56-4.02-4.54-7.48-8.72-8.87-3.83-1.27-7.9-.49-11.25,1.69-3.71,2.41-6.39,6.08-10.08,8.52l2.34,.23c.18-10.91,2.22-21.71,6.02-31.93,.34-.92-2.54-.58-2.89,.37h0Z"></path></g><g class="cls-3"><path class="cls-1" d="M261.57,200.38c-8.92,23.42-26.81,43.29-49.17,54.61,4.73,8.28,8.4,17.15,10.9,26.35-1.5,.91-3.57,.72-4.89-.43,1.32,1.54-1.6,3.15-3.63,3.12-5.25-.09-10.8-.26-15.25-3.04-2.57-1.61-4.57-3.97-6.39-6.39-11.99-15.89-18.28-35.98-17.51-55.87,.77-19.89,8.61-39.43,21.8-54.34"></path><path class="cls-1" d="M260.2,200.27c-6.92,18.06-19.06,34-34.64,45.47-4.35,3.2-8.95,6.05-13.77,8.5-.53,.27-1.07,.75-.72,1.36,4.67,8.22,8.29,17,10.79,26.12l.83-1.14c-1.12,.61-2.18,.31-3.14-.46-.74-.59-3.26,.31-2.46,1.39,1.2,1.65-3.27,1.52-3.86,1.5-2.38-.07-4.8-.2-7.13-.71s-4.65-1.44-6.61-2.94-3.44-3.34-4.88-5.23c-5.84-7.69-10.32-16.38-13.29-25.57-5.94-18.34-5.64-38.35,1.05-56.45,3.7-10.03,9.21-19.36,16.27-27.38,1.18-1.34-1.61-1.59-2.39-.71-13.56,15.41-21.62,35.55-22.11,56.1-.25,10.53,1.43,21.08,4.88,31.03,1.7,4.88,3.82,9.6,6.33,14.12,2.5,4.49,5.36,8.99,8.81,12.82,1.89,2.1,4.08,3.82,6.7,4.92s5.53,1.57,8.37,1.78c2.57,.19,5.54,.6,8-.36,1.62-.63,3.9-2.25,2.51-4.15l-2.46,1.39c1.87,1.49,4.58,1.52,6.63,.4,.39-.21,.98-.61,.83-1.14-2.55-9.29-6.26-18.2-11.02-26.57l-.72,1.36c17.62-8.96,32.51-22.97,42.57-39.99,2.88-4.87,5.33-9.97,7.36-15.25,.56-1.47-2.33-1.3-2.74-.23h0Z"></path></g><g class="cls-3"><path class="cls-1" d="M354.03,230.71c-3.82,10.19-5.86,21.05-6.02,31.93,5.07-3.29,8.62-9.4,14.59-10.35,3.91-.62,7.95,1.35,10.47,4.4,2.53,3.05,3.71,7.03,4.08,10.98,.63,6.81-1.05,13.81-4.71,19.59-.99-.6-1.58-1.8-1.45-2.95-.72,1.1-1.56,2.28-2.83,2.59-1.28,.31-2.87-.98-2.29-2.16-.8,.59-1.61,1.18-2.41,1.76-1.44-1.34-2.03-3.51-1.47-5.4-2.54-1.56-5.34,1.36-7.37,3.54-7.55,8.14-22.03,8.31-29.77,.34-4.55-4.69-6.61-11.26-7.65-17.71-1.74-10.68-1.11-21.73,1.82-32.14"></path><path class="cls-1" d="M352.58,230.89c-3.8,10.22-5.84,21.02-6.02,31.93-.02,1.06,1.84,.6,2.35,.26,2.87-1.91,5.17-4.46,7.75-6.71,2.7-2.37,5.71-4.06,9.38-2.97,8.38,2.49,10.4,12.89,9.64,20.43-.48,4.76-2.05,9.35-4.58,13.41,.83-.22,1.67-.45,2.5-.67-.8-.55-1.2-1.47-1.16-2.43,.06-1.27-2.41-.45-2.8,.14-.26,.39-.97,1.73-1.47,1.77-.72,.07-1.04-.96-.86-1.48,.36-1.03-2.02-.5-2.35-.26-.8,.59-1.61,1.18-2.41,1.76l2.25-.13c-1.35-1.35-1.84-3.16-1.36-5,.06-.24-.11-.42-.3-.53-2.61-1.41-5.52,.1-7.53,1.85-2.04,1.78-3.62,3.85-5.99,5.25-4.33,2.57-9.66,3.11-14.51,1.93-13.1-3.2-16.49-17.86-17.26-29.55-.55-8.39,.37-16.83,2.62-24.92,.29-1.05-2.62-.64-2.9,.36-2,7.18-2.93,14.6-2.76,22.05,.15,6.9,1.02,14.17,3.77,20.57,2.26,5.26,6.01,9.73,11.37,11.97,4.91,2.05,10.51,2.31,15.63,.93,2.9-.78,5.64-2.1,8.02-3.93,1.19-.92,2.17-2.02,3.22-3.09s2.48-2.84,4.02-2l-.3-.53c-.54,2.1,.04,4.25,1.57,5.79,.51,.51,1.75,.24,2.25-.13,.8-.59,1.61-1.18,2.41-1.76l-2.35-.26c-.64,1.84,1.53,2.92,3.07,2.84,2.21-.11,3.72-1.69,4.86-3.42-.93,.05-1.87,.1-2.8,.14-.08,1.5,.53,2.63,1.75,3.48,.64,.45,2.12-.05,2.5-.67,4.74-7.6,6.68-17.88,3.37-26.42-1.56-4.02-4.52-7.45-8.67-8.87-3.85-1.31-7.94-.53-11.3,1.66-3.71,2.41-6.39,6.08-10.08,8.52l2.35,.26c.18-10.91,2.22-21.71,6.02-31.93,.36-.96-2.54-.62-2.9,.36h0Z"></path></g><g><path class="cls-6" d="M381.29,186.58c-10.18-33.25-30.95-63.16-61.37-80.53-22.56-12.88-47.56-23.21-73.53-22.78-36.44,.6-65.45,25.89-74.43,60.78-2.78,10.79-2.36,22.56-.91,33.78,1.03,8.02,2.59,15.97,5.28,23.29,7.64,20.79,23.51,34.16,39.7,43.01,44.59,24.34,97.46,20.98,140.24-8.93"></path><path class="cls-6" d="M382.74,186.19c-5.18-16.84-13.04-32.86-23.64-46.96-10.74-14.28-24.19-26.07-39.77-34.8-17.79-9.98-36.98-18.27-57.36-20.95-17.03-2.23-34.38-.11-49.79,7.72-13.79,7.01-25.19,18.13-32.9,31.51-4.03,7-7.09,14.61-8.98,22.46-2.49,10.34-2.14,21.18-.88,31.66,1.26,10.4,3.35,20.83,7.83,30.36,3.77,8.03,9.08,15.28,15.41,21.47,12.55,12.28,28.91,20.76,45.53,26.07,17.43,5.56,35.95,7.37,54.13,5.38,18.59-2.04,36.68-8.02,52.96-17.21,4.15-2.35,8.19-4.89,12.11-7.62,.5-.35,.3-.64-.2-.75-.62-.13-1.54,.2-2.05,.55-15.22,10.61-32.46,18.34-50.68,22-17.55,3.52-35.77,3.33-53.23-.65-17.01-3.87-33.72-11.11-47.63-21.72-6.69-5.11-12.74-11.13-17.55-18.06-5.4-7.78-9.02-16.52-11.18-25.71-2.39-10.15-3.7-20.83-3.5-31.26,.17-9.31,2.16-18.3,5.65-26.92,5.72-14.13,15.25-26.7,27.73-35.53,12.73-9.01,27.93-13.5,43.49-13.34,20.33,.21,40.04,7.04,58.04,16.05,8.28,4.14,16.43,8.65,23.89,14.16,6.85,5.05,13.16,10.83,18.84,17.17,11.46,12.77,20.35,27.74,26.64,43.69,1.55,3.94,2.95,7.94,4.19,11.98,.24,.77,3.12-.04,2.9-.78h0Z"></path></g><g class="cls-4"><path class="cls-1" d="M193.61,224.66c5.7,6.86,14.84,10.83,23.7,14.36,10.81,4.31,21.84,8.36,33.4,10.79,4.92,1.03,9.91,1.77,14.9,2.5,11.83,1.74,23.95,3.48,35.74,1.58,12.44-2,23.53-7.9,33.92-14.14,2.51-1.51,5.05-3.09,6.86-5.23,1.81-2.14,2.8-4.97,1.85-7.49-1.62-4.33-7.84-5.87-13.09-5.78-10.47,.17-20.44,4.04-30.89,4.65-8.08,.47-16.13-1.02-24.05-2.5-19.49-3.65-39.24-7.42-58.18-11.98-2.16-.52-3.89-2.07-5.46-3.65-9.96-10.01-16.86-23.03-19.53-36.9-.64-3.3-1.08-6.76-2.9-9.58-1.82-2.83-5.53-4.79-8.59-3.41-3.87,1.75-4.12,7.06-3.77,11.3,.51,6.21,1.03,12.42,1.54,18.63"></path><g><path class="cls-1" d="M181.46,187.14c.01,.59,.41,.34,.49,.43-.17-.97-.6-.39-.49-.43Z"></path><polygon class="cls-1" points="179.71 177.53 179.9 177.69 179.36 176.3 179.71 177.53"></polygon><path class="cls-1" d="M178.98,168.51c-.66,.87,.38,3.26,.26,4.88l-.14,.28,.63,.68c-.25-1.94-.85-4.49-.75-5.84Z"></path><path class="cls-1" d="M180.61,164.22c-.3,.21-.14-.89-.19,.91,.04-.09,.06-.11,.09-.16,.01-.16,.02-.39,.1-.75Z"></path><path class="cls-1" d="M180.51,164.96c-.06,.79,.28-.49,0,0h0Z"></path><path class="cls-1" d="M181.14,161.79c-.04,.27-.08,.54-.09,.84,.21-.14,.51-.69,.52-.42,.19-.65,.03-.64-.44-.42Z"></path><path class="cls-1" d="M181.1,160.92c-.05,.12-.11,.24-.15,.39,.09-.03,.16-.1,.15-.39Z"></path><path class="cls-1" d="M180.74,162.21c.05-.32,.12-.63,.22-.91-.15,.04-.38-.07-.14,.39-.15-.17-.06,.1-.08,.52Z"></path><path class="cls-1" d="M180.45,162.7c-.3,.46-.55,1.2-.55,.13-.2,.97-.07,1.45,.05,1.39,.14-.05,.29-.64,.5-1.52Z"></path><path class="cls-1" d="M178.21,168.1l-.15,.94,.31,.79c-.16-.41,.05-1.81-.16-1.73Z"></path><path class="cls-1" d="M184.32,160.79c.09-.13-.11-.47-.13-.66-.19,.02-.38,.05-.54,.1,.24,.1,.71,.33,.67,.56Z"></path><path class="cls-1" d="M184.19,160.14c.29-.03,.61,0,.94,.04-.79-.35-.95-.2-.94-.04Z"></path><path class="cls-1" d="M180.59,160.29c-.23,.53-.33,1.13-.38,1.72,.09-.71,.26-1.37,.6-1.96-.07,.08-.16,.14-.22,.23Z"></path><path class="cls-1" d="M186.93,162.71c-.21-.05-.38-.11-.58-.15,.32,.09,.63,.21,.95,.36l-.37-.21Z"></path><path class="cls-1" d="M188.17,164.97c-.43-.33-.25,.76-.58,.36,.3,.68,.72,1.29,1.09,1.88-.28-.65-.43-1.34-.51-2.24Z"></path><path class="cls-1" d="M189.24,168.25c-.14-.35-.34-.69-.56-1.04,.15,.35,.33,.69,.56,1.04Z"></path><path class="cls-1" d="M186.53,161.14c0,.12-.03,.4,.27,.85,.02-.19,.03-.38,.03-.58-.09-.08-.18-.19-.3-.27Z"></path><path class="cls-1" d="M186.82,161.39v.02c.31,.3,.5,.54,.57,.64-.06-.09-.22-.3-.57-.66Z"></path><path class="cls-1" d="M186.45,161.08s.05,.04,.08,.06c0-.06-.01-.08-.08-.06Z"></path><path class="cls-1" d="M182.85,159.4c.41-.35,1.84-.46,.55-.9-.23,.15-.15,.27-.14,.41,.02,.13-.05,.27-.41,.5Z"></path><path class="cls-1" d="M186.36,160.34c-.3-.25-.62-.46-.95-.65-.02,.11,.08,.35-.23,.33,.38,.07,.79,.16,1.18,.33Z"></path><path class="cls-1" d="M186.9,160.58c-.18-.09-.36-.17-.54-.24,.11,.09,.22,.18,.33,.28l.22-.05Z"></path><path class="cls-1" d="M189.09,165.91c.33,.49,.51,1.11,.69,1.84-.08-.8-.23-1.59-.45-2.3-.16-.06-.48-.29-.24,.46Z"></path><path class="cls-1" d="M188.25,163.4s.05,.06,.07,.09c0-.08-.02-.13-.07-.09Z"></path><polygon class="cls-1" points="191.39 175.44 191.44 175.3 191.36 175.29 191.39 175.44"></polygon><path class="cls-1" d="M189.36,165.3c-.1-.56-.31-.84-.55-1.07,.19,.35,.37,.76,.51,1.22,.07,.03,.11,.02,.04-.15Z"></path><path class="cls-1" d="M189.83,170.29c.03-.34,.03-.73,.03-1.12-.07,.33-.16,1.02-.03,1.12Z"></path><path class="cls-1" d="M188.29,163.7l-.05-.06c-.01,.19,.02,.15,.05,.06Z"></path><path class="cls-1" d="M188.29,163.7c.17,.21,.35,.36,.52,.53-.15-.29-.32-.54-.49-.74,0,.07-.01,.15-.03,.21Z"></path><path class="cls-1" d="M194.67,177.03c-.21,0-.51-.37-.77-.94-.24-.57-.41-1.33-.38-2.08-.63-1.31-1.69-.13-2.07,1.29,.18,0,.33-.03,.93,1.36,.07-.57-.32-3.33,.33-2.2,.68,1.85,.25,1.59,.32,2.57,.25-.91,1.39,2.19,1.96,1.56l-.72-1.55c.1-.06,.44,.48,.41,0Z"></path><path class="cls-1" d="M190.83,172.49l-.18-.6c.08,.71,.03,1.23-.08,2.22,.44,.97,.64,1.14,.78,1.17-.25-.99-.44-1.99-.63-2.99l.1,.2Z"></path><path class="cls-1" d="M190.13,169.21c.51,.37,.95,1.77,1.25,.81-.35-1.72-.58-1.15-.96-2.12,.64,2.7-.38-.74-.24,1.28-.17-.53-.29-1-.4-1.43,.05,.49,.08,.96,.08,1.43,0-.03,0-.05,.01-.07h0s0-.01,0-.01c.03-.13,.06-.17,.05-.03,0,0,.02,.04,.02,.06,.06,0,.12,.05,.18,.09,.06,.82-.09,.14-.18-.09-.02,0-.05-.02-.07-.02h0c.25,.91,.49,1.85,.78,2.8-.08-.62-.23-1.39-.52-2.68Z"></path><path class="cls-1" d="M184.86,157.74c.07,.06,.06,.09,.06,.12,.18,0,.26-.02-.06-.12Z"></path><path class="cls-1" d="M185.85,158.35c-.21,0-.41,.06-.99-.14-.49-.25,.05-.21,.06-.34-.43,.01-1.33,.05-.26,.47,.06-.01,.12,0,.19,0,.49,.19,.95,.6,1.25,.93,.29,.35,.43,.61,.34,.6-.03-.47-.1-.86-.6-1.5Z"></path><path class="cls-1" d="M189.48,163.11c.38,.61,.7,1.28,.99,1.98,0-.4,0-.81-.03-1.21l-.19,.14c-.4-1.22-.57-.83-.78-.9Z"></path><polygon class="cls-1" points="191.25 175.77 190.73 175.56 191.71 176.78 191.25 175.77"></polygon><path class="cls-1" d="M192.17,178.83h-.41c.16,.25,.3,.5,.47,.74-.03-.24-.04-.49-.06-.74Z"></path><path class="cls-1" d="M346.7,229.74c.01,.32,.01,.64,0,.95,.05-.44,.03-.74,0-.95Z"></path><path class="cls-1" d="M344.44,223.31c-.08,0-.17,0-.25,.01,.28,.15,.43,.21,.25-.01Z"></path><path class="cls-1" d="M250.78,221.11c.93,.56,1.93,1.34,1.9,.88l-.22-.49c-.71-.06-1.24-.21-1.68-.4Z"></path><path class="cls-1" d="M302.53,225.58c-.1-.03-.2-.07-.31-.1-.23,.17-.45,.33-.65,.48,.29-.11,.61-.24,.95-.38Z"></path><path class="cls-1" d="M303.04,223.72c.44,.05,.88,.09,1.33,.11-.3-.06-.73-.08-1.33-.11Z"></path><path class="cls-1" d="M324.82,248.82l-.55,.77c1.17-.58,.55-.53,.55-.77Z"></path><path class="cls-1" d="M208.31,206.97c.47,.8,.94,1.35,1.36,1.83-.58-.96-.91-1.85-1.36-1.83Z"></path><path class="cls-1" d="M342,228.15c.14,.23,.24,.34,.33,.32-.12-.28-.25-.4-.33-.32Z"></path><path class="cls-1" d="M211.57,210.71c-.1-.14-.2-.28-.3-.42-.56-.43-1.06-.87-1.6-1.48,.42,.71,.99,1.47,1.91,1.9Z"></path><path class="cls-1" d="M225.44,244.81c-.06-.04-.14-.08-.2-.13-.04,.05,.05,.09,.2,.13Z"></path><path class="cls-1" d="M200.97,228.78c.24,.13,.61,.38,.97,.61-.15-.14-.44-.33-.97-.61Z"></path><path class="cls-1" d="M196.8,190.83c-.33-.59-.09-.07,0,0h0Z"></path><path class="cls-1" d="M196.94,187.14c.1,.11,.21,.18,.3,.15-.12,0-.22-.06-.3-.15Z"></path><path class="cls-1" d="M219.07,211.65s.03,0,.05,.01c-.17-.13-.14-.1-.05-.01Z"></path><path class="cls-1" d="M196.52,189.83c.07,.25,.16,.53,.28,.83-.03-.14-.11-.39-.28-.83Z"></path><path class="cls-1" d="M196.4,190.04c-.09-.22-.16-.39-.23-.55-.1-.05-.12,.05,.23,.55Z"></path><path class="cls-1" d="M197.25,191.66c-.18-.34-.33-.68-.46-1,.03,.13,.04,.19,0,.17,.09,.18,.23,.42,.45,.83Z"></path><path class="cls-1" d="M278.38,255.33s-.09-.03-.14-.06c-.68,.11-.39,.11,.14,.06Z"></path><path class="cls-1" d="M268.37,219.92s-.05,0-.08,0c.03,.01,.07,.02,.09,.03l-.02-.04Z"></path><path class="cls-1" d="M270.74,220.03c-1.08,.35-1.63,.18-2.35-.08l.53,1.37,1.82-1.3Z"></path><path class="cls-1" d="M338.38,240.77c.56-.2,1.12-.41,1.69-.64-1.44,1.75-2.85,2.3-1.17,1.92-.26-.65,1.17-1.55,2.59-2.69,1.43-1.11,2.76-2.61,2.32-3.17,.35-.26,.71-.56,1.05-.87-.24,.31-.21,.41-.46,.7,1.08-.84,1.12-1.47,1.15-2.12,0-.68,.03-1.36,.52-2.99,.35-1.14,.5-2.08,.64-1.18-.04-.96-.23-1.94-.61-2.83-.24-.8,.06-.7,.28,.14-.42-1.45-1.23-2.73-2.23-3.71h.05c-.58-.3-1.76-.87-2.34-1.02-.71-.67,.48,.13,.37-.14-.65-.3-1.31-.53-1.96-.71-.62-.63,1.1-.36,2.34,.59-.23-.57-.49-.88-.76-1.11-.28-.19-.58-.28-.94-.38-.75-.15-1.71-.39-3.59-1.25,.64,.1,1.27,.2,1.92,.37-.99-1.15-2.58-1.28-4.69-2.01,.25,.15,1.3,.6,1.98,1.05,.68,.47,.98,.87-.11,.8-.57-.21-1.36-.4-2.52-.24,.04-.48-1.1-.48-2.5-.46l.1-.64c-1.53,.19-1.36,.55-2.22,.86-1.61,.03-1.98-.42-2.41-.81-2.59,.17,1.84,.59-1.17,1.05-2.15,0-3.59,.49-5.97,1.32-1.48,.05,.18-.43-.37-.52l-1.17,.75c-.31,.05-.24-.12-.21-.21-1.02,.41,.03,.64-1.6,1.15-.31,.78-3.61-.3-5.48,.9-.54-.08,.16-.43-.04-.64-2.68,1.06-2.3,.85-4.47,1.93-.67-.02-1.34-.08-2.01-.12,1.5,.26-.24,1.12-1.83,1.75,.54,.17,1.01,.32,1.33,.39-.86,.21-1.73,.44-2.61,.61-.33-.08-.08-.32,.33-.62-.17,.07-.34,.13-.47,.19-.96-.16-.49-.57,.14-.98,.33,.1,.65,.21,.97,.31,.61-.46,1.15-.95,.97-1.31-.16,.09-.47,.19-.82,.27,.15-.12,.25-.23,.17-.28-.09-.06-.34,.11-.75,.32l-.64-.67-.12,.29c-1.12-.06-2.23-.15-3.33-.28-2.35,.74-4.53,1.74-8.45,1.63,1.02-.42,.3-.83,.42-1.44,.98,.76,2.99,.02,4.94,.22-1.03-.1-.78-.4-.52-.49-1.17,.14-2.36,.26-3.55,.34,.13-.5-.71-.44-1.6-.76,.58,1.08-2.71,.35-4.19,.41-.04-.35,.36-.63,2.1-.3-1.81-1.02-2.67,.8-4.48-.15,.43,.06,.65,.15,.85,.01-1.05,.14-3.46-.54-2.83-.72l.43,.07c-2.82-.62-8.69-1.62-9.27-.86,0-.11,.56-.94,.77-1.07l-5.63,1.85c.58-.63-.81-2.67,1.63-2.63-.66-.23-1.48-.51-2.96-.53,.44,.19,.96,1.26,.31,1.2-1.59-1.13-1.13-.66-3.14-1.75,.67,.29-.32,1.26-1.41,1.02,.2-.14,.12-1.13,.55-1.17l-2.94,.58c.72-.07,.3-.91-.25-1.34,.24,.27-2.36-.48-3.1-.51l1.11,.48c-3.05-.77-3.35,.96-6.4,.29,.42-.15,1.19-1.22-.33-1.67-.82,.42-3.7,2.09-6.5,1.96l-.45-.43-2.15-.06c1.47-.58,5.46-1.62,7.58-1.92-1.1-.49-.24-.44-1.97-.76-.55-.43,1.03-.27,1.54-.18l-3.97-1.01c.04,.7-3.2,.03-3.16,.61l4.5,.22c.04,.7-2.9,1.36-5.72,.65-.67-.41,.79-1.06,.77-1.29-.42,.15-2.79-.14-3.01-.35l1.28-.1c-1.53-.58-2.76,.33-4.53-.71-.65-.18-1.77-1.27-1.97-.91,.9,.99,.61,3.35-.23,3.76-.22-.1-3.29-1.47-3.95-2.02-.95-.83,1.93-1.03,1.13-1.74-.08,.17-.72,.26-.99,.27-.65-.31,.41-.49-1.1-.75-.4,.61-3.02-.74-.83,.4-1.5-.14-1.52-.49-3.23-.86,.45,.56-1.88,1.11-3.38,.94,.13-.15-.15-.45-.28-.58-.74-.2-1.41-.36-1.97-.6-.57-.24-1.05-.55-1.51-.89-.91-.67-1.68-1.45-2.69-2.45-.08-.29-.87-1.43-.26-1.21-.37-.21-.79-.32-1.41-.94-.73-1.62,1.4,1.34,1.04-.07-.38,.21-1.92-1.27-2.93-2.05-.21,.68,1.82,2.25,2.87,2.95-.6,.6-2.79-.35-5.04-2.45-1.7-1.74-.24-1.15-.6-1.4-1.33-1.83-2.2-2.38-2.95-2.92-.76-.53-1.43-1.03-2.2-2.8-.37-1.55,.87-.63,1.01-1.12,.62,.76,.95,1.43,1.23,2.05,.3,.61,.53,1.17,.92,1.7l-.73-1.47c.51,.4,1.35,1.39,1.65,2.04-.16-.65-1.27-2.17-2.42-4-1.17-1.81-2.35-3.95-2.97-5.57-.43-.46-1.08-1.32-1.04-.77l.56,.94c.07,1.1-1.47-1.57-1.02-.23-.95-1.17-2.11-2.49-2.72-4.52l.41-.6c-.15,.11,.18,1.41,.61,1.86-.63-.69-.5-3.25-1.58-3.84,.03,.51,.09,1.02,.15,1.52-.85-1.26-2.13-2.79-2.52-4.65-.3,1.01,.2,.39-.04,1.89,.41-1.38,1.69,4.53,1.88,2.45-.23,1.57,.57,2.33,.7,4.25,.16-.14,.08-.74,.66,.74,.08,.04,.23,.16,.31,.23,.02,.05,.02,.06,.03,.1,0-.03-.01-.06-.02-.09,.06,.05,.07,.05,0-.03-.09-.37-.12-.7-.07-.86,.75,.51,1.85,2.75,2.49,3.36,.37,.86-.39-.23-.34,.32l.92,.93c-.35,.34,.62,2.52-.74,.75l1.01,1.73c.37,1.15,1.21,2.55,1.91,3.28,.47,.83,1.78,1.66,1.02,1.19,.67,.81,1.39,1.57,2.09,2.34l-.07,.09c.93,1.23,2.07,2.35,3.24,3.5,.57,.59,1.15,1.19,1.71,1.82,.56,.64,1.06,1.33,1.6,2.12,.9,.66,1.78,1.38,3.55,2.54l.2,.54c.4,.16,.9,.39,1.47,.59,.47,.15,.98,.32,1.46,.47,.84,.27,1.6,.48,1.92,.34,1.12,1.35,6.07,1.64,8.25,2.32l.19-.48c1.52,.36,3.02,.55,4.96,.76l-.02-.46c1.71,0,4.14,1.22,6.75,1.71-.21,.13-.86-.05-1.3-.25,2.89,1.64,6.69,.63,9.35,1.92,.73-.02,1.23,.14,1.7,.35-.07-.01-.13-.02-.18-.01,.07,.02,.18,.04,.29,.06,.29,.14,.6,.29,.93,.43-.27-.16-.54-.31-.77-.4,.54,.1,1.37,.21,2.2,.25l.25,.54c.07,0,.12,.01,.19,.02,.75,.33,.68-.1,.33-.54,.42,0,.81-.02,1.12-.08,.49,.89,2.16,.15,2.88,1.14,.62-.29,4.1,.48,4.69-.27,0,.11,.23,.21-.2,.14,.88,.27,1.76,.53,2.6,.45l.27,.67,2.11-.44c1.12,.59,1.57,.9,.3,1.14,2.99-.17,2.36,.17,4.92-.08l-.19,.37c.87,.15,2.35-.11,2.82,.31,1.8,1.09,9.56,1.98,14.63,3.21-.87-1.26,2.34,.78,2.64-.13,.28,.3,.99,.51,.13,.68,2.66-.07,4.01,.65,5.86-.12,.31,.27-.57,.41-.3,.57,.22-.06,.85-.25,1.14-.09,.28,.16-.39,.24-.82,.36,2.79-.1,3-1.02,3.14-1.82,1.39,.28,2.08,.14,2.99-.49,.5,.2,1.33,.38-.33,.67,.95-.02,5.76-.46,5.72-1.14,.32,.11,1.29-.19,1.51-.32,2.05-.36,2.24-.36,4.22-.83h-.57c.63-.91,1.62-.5,3.2-.92l-.03,.09c3.77-.17,1.54-.6,5.26-.6l-.27-.44c.18-1.09,3.3,.09,5.34-.46l-.78-.21c.56-.22,1.4,.06,2.22,.42,.81,.39,1.63,.8,2.15,.88,.23,.1-.35,.13-.7,.22,1.42,.28,1.47,.16,1.5-.1,.01-.24-.07-.61,1-.61,.35,.38-.55,.81,.81,1.01,.32,.18,1.33,.03,2.49,.08,1.14,.04,2.42,.36,2.99,1.06-.2-.39-.45-.83,.46-.56,.64,.3,1.23,1.08,1.58,1.77,.36,.71,.54,1.3,1.04,1.71-.04,.15-.11,.22-.17,.23,.17,.39,.28,1.12,.19,1.88-.06,.76-.28,1.5-.24,1.9-.49,.02-.88,.39-1.31,.89-.43,.5-.92,1.17-1.47,1.79-1.1,1.25-2.35,2.31-2.75,1.67-1.01,.7-2.08,1.37-3.17,2.05v-.19c-2.15,1.17-2.71,1.91-3.27,2.66-.54,.19-.26-.14-.25-.23-3.26,1.5-3.52,1.7-5.82,3.77l-.5-.3c-.6,.64-4.91,1.62-7.87,3.43,.01-.06,.04-.18,.27-.35-1.69,1-3.99,1.52-5.95,1.94-.98,.22-1.88,.41-2.58,.71-.71,.27-1.23,.63-1.47,1.16-.79,.37-1.59,.67-2.4,1.01,3.29-.58-.32,.87,1.09,.87-1.28,.42-3.47,.11-1.89-.26l.27,.04c.2-.51-.83-.41-1.92-.26-1.09,.12-2.24,.27-2.23-.06-6.47,.85-12.87,.08-18.98-.55l.64,.8-2.15-.25c-.55-.23-.69-.65,.83-.46-.76-.5-2.6,.07-2.67,.22-2.96-.66,1.27-.7,.35-.83l-1.25-.1,.27,.12c-1.05,.17-1.18,.48-3.01,.2-1.15-.3-.54-.53-.99-.62,0-.05-.14-.1-.7-.12l-2.7-.45,1,.73c-1.24,.11-2.55-.4-1.39,.43-1.7-1.26-10.07-1.85-11.13-2.38-1.74,.13-3.39-.17-5.4-.63,.48,.22,.66,.92-1.08,.48,.91-1.17-3.07-1.26-4.23-2.56,.54,.47-.69,.2-1.84-.02-1.15-.24-2.22-.42-1.37,.29-1.41-.5,.04-.5-.96-1.11-3.55-.46-7.35-2.56-11.53-3.86-.12,.14,.48,.64-.5,.57l-1.88-1.61c-.84-.22-1.1,.68-2.37-.45,.16,.22,.39,.54-.17,.39-3.87-1.92-8.05-3.36-12.14-4.98-4.06-1.62-8.09-3.54-11.17-6.5,.79,.88,.11,.53-.62,.05,.42,.39-.25,.36-.29,.62-.87-.84-1.7-1.71-2.46-2.61-.46,.06-1.2-.53-1.86-1.14-.68-.6-1.26-1.23-1.63-1.14l.87,.71c-.78-.26-.72,.4-.52,1.21,.22,.79,.58,1.74,.18,2.03,.96,.26,1.66,1.23,2.59,2.23,.92,.99,2.06,2,3.62,2.21,.46,.49-.63-.01-.45,.35,.85,.02,1.66,.4,3.03,1.33h-.21c4.16,2.03,5.82,3.16,10.48,5.36l-.17-.58c1,.47,1.16,.69,1.59,.99,1.44-.2-2.85-1.19-1.49-1.49,.99,1.45,7.19,2.86,7.73,4.22,1.58,.6-.27-.69,1.31-.08l.32,.44,.54-.21c1.02,.44,1.42,.99,1.37,1.24-.24-.12-.74-.2-1.02-.28,1.23,.84,3.87,1.28,4.3,1.55l-1.48-.72c4.45,1.31,9.74,3.44,14.25,4.03l-.27-.3c3.41,.48,2.59,.96,6.3,1.64l-.15,.02c.79-.06,1.79,.06,2.79,.29-.99,.07,1.66,.85,.37,.89,3.74,.27,1.88,0,4.43-.38l.49,.46c.88-.19,.97-.35,2.83-.16-1.56,.08,1.09,.74-.67,.89,3.76,1.41,5.87,.06,7.47,1.5,1.92-.76-3.26-1.05-2.24-1.13-.78-.45,1.58-.54,2.77-.26,1.23,.2,1.91,1.61,5.03,2.02-.31-.05-.34,.03-.65-.02,1.13,.42,2.34-.04,3.72,.56,.88-.52,1.87,.27,2.19-.5l-2.9-.17c1.66,0,3.28-.73,5.92-.02-.22,.14-1.05,.28-1.61,.33,.76,.32,1.53,0,2.33,.31-.31,.77-3.53-.16-5.35,.21,.81,.44,3.38-.19,2.41,.56,1.38-.94,3.11,.46,5.33-.21l-.18,.46c.35-.04,1.07-.23,1.7-.18l-1.18,.55c1.78-.41,3.36,.65,5.08,.4-3.55-.09-.78-.59-2.26-.99,2.18-.22,2.79,.07,3.48,.44,.69,.36,1.46,.8,3.93,.59-.67,.11-2.51-.22-1.48-.46,.94,.08,2.18,.2,2.77,.42,3.27-.33-.53-.45,.84-.84,1.15,.51,1.58-.35,2.97-.69l.06,.48c1.87-.07,2.08-.38,2.24-.64,.16-.27,.28-.51,1.94-.63l-1.27,.91,1.69-.48-.25,.6c.91-.36,1.5-.58,2.1-.72,.6-.14,1.22-.2,2.14-.37-.5-.23,.02-.9,1.59-1.35,1.15-.04-.47,.62,1.73-.11-.41,.44-.86,.97-1.96,.83-.06,.18-.42,.42-.49,.6,1.26,0,2.97-.77,3.76-1.05-.32,.08-.69,.19-.9,.18,1-.57,2.01-1.11,2.98-1.72,.56-.01,.22,.27-.13,.55,.62-.29,.99-.65,1.91-1.05-.1,.46,.11,.82-1.17,1.49,.97-.5,1.91-1.04,2.85-1.57,.27,.09,1.7-.21,1.37,.09,1.76-.48,3.68-2.48,5.91-3.25,.07-.12,.26-.3,.68-.58,2-.92,3.95-1.43,5.94-3.18l1.63-.12c1.67-1.16-2.16,.23,.62-1.69,1.94-1.4,1.07,.06,1.89-.19,.84-.92,2.22-2.53,4.46-3.39-.56,.55-1.12,.8-1.68,1.21Zm-1.93-21.22c.27,0,.68,0,1.07,.02,.39,.05,.75,.14,.9,.33-.75,.36-1.11-.02-1.97-.36Zm-37.57,5.37c.34-.18,.88-.1,1.5,.02-.44,.08-.94,.07-1.5-.02Zm-98.06-27.83s.03,.02,.05,.03c.44,1.02,.29,.66-.05-.03Zm-1.02-2.05c-.18-.16-.23-.11-.23,0,.19,.07,.46,.51,.73,1.03,.02-.21-.05-.5-.5-1.03Zm72.03,56.22l.41,.18c-.98,0-.69-.08-.41-.18Z"></path><path class="cls-1" d="M302.97,223.93c.14,.07,.19,.15,.23,.24,.17-.1,.16-.19-.23-.24Z"></path><path class="cls-1" d="M324.92,248.68l-.07,.03s-.03,.08-.03,.11l.1-.14Z"></path><path class="cls-1" d="M228.09,211.79c.43,.17,.66,.31,.8,.44,.05-.11-.13-.25-.8-.44Z"></path><path class="cls-1" d="M193.71,184.5l.68,1.32c-.3-.65-.3-.92-.36-1.28-.09,.07-.14,.39-.32-.03Z"></path><path class="cls-1" d="M192.99,171.62c-.1-.19-.1-.43-.2-.62l-.21,.1c.2,.87,.5,1.43,.41,.52Z"></path><path class="cls-1" d="M194.73,182.66c.35-.25-.13-1.04-.5-1.98,.02,.06,.04,.11,.06,.17-.63-.1-.12,.87,.45,1.81Z"></path><path class="cls-1" d="M194.14,180.47c-.12-.29-.23-.59-.3-.88-.25-.04,.07,.37,.3,.88Z"></path><path class="cls-1" d="M198.13,192.65c-.14-.48-.6-.02-.59-.34-.72-.23,2.12,2.55,.59,.34Z"></path><polygon class="cls-1" points="195.7 181.44 195.36 181.95 195.93 182.33 195.7 181.44"></polygon><path class="cls-1" d="M198.43,188.83c-.2-.49-.37-1-.55-1.5-.07,.06-.2-.11-.33-.32,.4,.9,.76,1.92,.89,1.82Z"></path><path class="cls-1" d="M197.54,187.01c-.21-.47-.42-.91-.6-1.14,.1,.26,.38,.79,.6,1.14Z"></path><polygon class="cls-1" points="196.61 183.42 196.69 183.89 197.09 184.94 196.61 183.42"></polygon><path class="cls-1" d="M207.63,203.28c.41,.42,.81,.84,1.23,1.24,.25,.02,0-.39-.46-.85-.36-.24-.82-.7-.78-.39Z"></path><path class="cls-1" d="M205.54,198.3c.18,.44,.11,.53,.13,.84l.53-.32-.66-.52Z"></path><path class="cls-1" d="M208.68,202.17c.24,.02,1.95,1.59,.55-.05-.24-.02-1.44-1.25-.55,.05Z"></path><polygon class="cls-1" points="230.33 214.03 229.9 213.94 229.74 214.95 230.33 214.03"></polygon><path class="cls-1" d="M253.34,216.32c-1.96-.64-.6,.52-2.36-.14-.52,.14,1.44,.54,.91,.65,1.26,0,1.87,.26,1.45-.51Z"></path><path class="cls-1" d="M251.89,216.83c-.2,0-.42,0-.65,.03,.36,0,.54,0,.65-.03Z"></path><path class="cls-1" d="M197.79,225.51c-.26-.32-.48-.67-.71-1l.31,.8c.13,.07,.27,.14,.4,.2Z"></path><path class="cls-1" d="M195.6,224.35l.29-.65-.93-.17c.21,.19,.61,.56,.64,.81Z"></path><path class="cls-1" d="M332.52,217.77l-.12,.15c.22,.18,.57,.19,1.26,.28-.38-.16-.76-.3-1.14-.44Z"></path><path class="cls-1" d="M346.88,232.09l.13-.4c-.26,.2-.52,.39-.79,.56,.22-.04,.43-.1,.65-.16Z"></path><path class="cls-1" d="M335.01,244.27c.55-.29,1.11-.78,1.66-1.08-1.11,.79-2.17,.54-1.66,1.08Z"></path></g></g><g><path class="cls-6" d="M307.03,192.85c-12.83,42.39-5.61,90.39,19.12,127.13,.88,1.31,1.82,2.77,1.58,4.33-.32,2.1-2.77,3.31-4.87,3.05-2.1-.25-3.92-1.55-5.63-2.8,1.89,.83-.96,3.21-3.02,3.09-13.11-.76-27.22-1.91-37.24-10.39-6.06-5.12-9.88-12.37-13.16-19.59-14.75-32.49-21.17-71.33-5.62-103.44"></path><path class="cls-1" d="M305.6,193.08c-5.51,18.31-7.35,37.65-5.64,56.69,1.72,19.11,7,37.92,15.65,55.05,2.4,4.75,5.06,9.38,7.97,13.84,1.25,1.92,4.09,5.07,2.04,7.34-1.89,2.1-5.39-.78-7.02-1.96-.91,.35-1.81,.69-2.72,1.04,.92,.49,.35,1.27-.34,1.7-.88,.54-2.59,.08-3.6,.02-2.69-.18-5.38-.39-8.05-.7-5.45-.63-10.89-1.66-16.01-3.7-5.03-2.01-9.52-5.06-13.1-9.14-3.83-4.37-6.57-9.57-9-14.82-9.66-20.87-15.88-44.01-15.06-67.15,.46-12.88,3.3-25.64,8.9-37.28,.28-.58-2.49-.34-2.87,.46-10.71,22.27-10.9,47.87-5.38,71.58,2.81,12.08,7.03,23.89,12.41,35.06,2.55,5.29,5.54,10.49,9.7,14.7,3.96,4.02,8.94,6.82,14.25,8.62,6.16,2.09,12.69,2.94,19.15,3.46,1.6,.13,3.21,.24,4.82,.33,1.44,.09,2.77,.17,4.16-.29,1.08-.35,5.15-2.6,2.74-3.88-.56-.3-1.32-.12-1.88,.1-.2,.08-1.3,.6-.83,.94,1.99,1.46,4.14,2.93,6.7,2.98,1.91,.04,4.08-.6,5.47-1.95,1.91-1.85,1.07-4.19-.2-6.15-1.35-2.07-2.71-4.12-3.99-6.23-5.26-8.71-9.59-17.97-12.96-27.57-6.69-19.08-9.57-39.49-8.41-59.68,.66-11.47,2.67-22.85,5.98-33.85,.22-.73-2.63-.36-2.87,.46h0Z"></path></g><g><path class="cls-6" d="M184.6,132.21c-10.23,7.73-17.66,18.68-22.98,30.34-5.32,11.66-8.67,24.11-12,36.48-3.13-6.71-7.1-13.03-11.78-18.76-4.97,6.64-9.94,13.28-14.91,19.92-1.42,1.89-2.91,4.24-2.07,6.46,1.33,.35,2.82,.06,3.92-.77,.08,1.34,.15,2.67,.23,4.01,1.85,.91,4.23,.64,5.81-.68-2.07,2.81,2.11,7.32,5.07,5.46,1.64,9.36,7.39,18.01,15.62,22.77,8.22,4.76,18.81,5.39,27.36,1.25,9.53-4.61,15.54-14.11,21.05-23.15,3.29-5.4,6.59-10.79,9.88-16.19"></path><path class="cls-1" d="M183.47,132.09c-15.95,12.14-24.53,30.88-30.31,49.55-1.8,5.83-3.39,11.72-4.97,17.62l2.89-.61c-3.18-6.76-7.16-13.1-11.87-18.9-.47-.58-2.32,.09-2.68,.58-3.43,4.58-6.86,9.16-10.29,13.74-1.67,2.23-3.38,4.42-5,6.69-1.31,1.83-2.55,3.97-1.82,6.28,.05,.12,.14,.2,.27,.23,2.18,.47,4.39,0,6.22-1.27-.86,.09-1.72,.18-2.58,.27,.08,1.34,.15,2.67,.23,4.01,.05,.12,.14,.2,.27,.23,2.61,1.17,5.89,.54,8.12-1.18l-2.46-.06c-1.21,1.81-.59,3.96,1.01,5.33,1.77,1.52,4.27,1.47,6.24,.36-.77,.03-1.54,.07-2.31,.1,2.49,13.7,13.29,24.97,27.27,26.79,7.14,.93,14.54-.58,20.68-4.34,5.95-3.65,10.45-9.1,14.3-14.83,5.14-7.65,9.74-15.69,14.54-23.55,.31-.51-1.03-.44-1.2-.41-.6,.09-1.35,.32-1.68,.87-4.11,6.74-8.15,13.54-12.37,20.22-3.46,5.47-7.3,10.95-12.39,15.03s-11.65,6.37-18.43,5.85-12.9-3.3-17.78-7.82c-5.28-4.9-8.77-11.51-10.06-18.58-.13-.71-2-.07-2.31,.1-.22,.12-.21,.13,.02,.04-.17,0-.34-.04-.5-.1-.28-.08-.53-.21-.78-.36-.52-.32-.97-.76-1.32-1.26-.72-1.03-1.04-2.44-.3-3.54,.69-1.04-2.1-.33-2.46-.06-.44,.34-.87,.6-1.44,.65-.39,.03-1.45,.01-1.74-.31-.26-.3-.14-1.32-.16-1.7-.04-.74-.08-1.48-.13-2.23-.05-.8-2.29,.07-2.58,.27-.39,.27-1.09,.61-1.46,.11-.33-.44-.08-1.53,.04-2.01,.33-1.24,1.04-2.35,1.78-3.38,1.64-2.26,3.35-4.48,5.02-6.71,3.38-4.51,6.76-9.03,10.14-13.54-.89,.19-1.79,.38-2.68,.58,4.64,5.72,8.56,11.96,11.69,18.63,.36,.76,2.7,.08,2.89-.61,5.2-19.35,10.65-39.45,23.4-55.39,3.31-4.13,7.05-7.88,11.27-11.09,.49-.37,.31-.66-.21-.79-.61-.14-1.56,.18-2.05,.55h0Z"></path></g><g><path class="cls-6" d="M326.27,215.63c1.21-9.31,2.88-18.75,7.32-27.02,4.44-8.27,12.11-15.29,21.37-16.77,7.97-1.27,15.93,1.58,23.82,3.27,10.2,2.18,20.86,2.46,30.65,6.05,1.92,.7,3.82,1.55,5.37,2.87,3.23,2.76,4.36,7.05,4.97,11.09s1.29,7.8,1.54,11.71c.5,7.95-.95,16-4,23.35-8.15,19.63-27.72,31.91-47.48,28.5-19.76-3.4-38.02-23.06-41.1-45.53"></path><path class="cls-6" d="M327.72,215.24c1.31-10.04,3.15-20.46,8.62-29.17,4.79-7.63,12.53-13.96,21.9-13.96,5.48,0,10.82,1.54,16.1,2.81,5.2,1.25,10.47,2.04,15.76,2.81,5.22,.76,10.47,1.57,15.53,3.12,2.46,.75,5.02,1.61,7.12,3.14,1.84,1.35,3.14,3.23,4,5.33s1.27,4.24,1.61,6.43c.42,2.73,.88,5.45,1.2,8.19,.63,5.32,.5,10.69-.51,15.96-1.75,9.11-5.84,17.8-12.08,24.7-5.39,5.95-12.34,10.65-20.13,12.78-7.76,2.13-16.05,1.52-23.52-1.41-15.63-6.14-27.58-20.87-31.87-36.92-.55-2.07-.97-4.16-1.27-6.28-.08-.57-3,.03-2.9,.78,2.49,17.61,14.15,34.27,30.24,42.06,7.62,3.69,16.05,5,24.43,3.75,8.45-1.26,16.48-5.02,23-10.51,7.04-5.93,12.24-13.86,15.15-22.57,1.73-5.2,2.69-10.67,2.75-16.15,.06-5.63-.85-11.34-1.88-16.86-.89-4.75-2.88-9.09-7.35-11.39-4.79-2.46-10.4-3.54-15.67-4.43-5.53-.93-11.12-1.53-16.62-2.62-5.68-1.12-11.23-2.93-16.99-3.62-9.9-1.18-19.33,2.17-26.21,9.4-7.19,7.55-10.39,17.67-12.15,27.74-.45,2.55-.81,5.11-1.14,7.67-.05,.35,2.78,.1,2.9-.78h0Z"></path></g><g><path class="cls-6" d="M422.2,220.54c2.36,.78,4.75,1.66,6.65,3.26,1.9,1.6,3.23,4.09,2.83,6.54-.33,1.98-1.69,3.61-3,5.13-6.42,7.45-12.96,15.01-21.22,20.35-4.09,2.65-8.79,4.76-13.65,4.45-4.78-.3-9.18-2.94-12.46-6.42-2.96-3.13-6.66-8-7.44-12.3-.94-5.16-1.23-11.04-.81-16.27,.24-2.99,.97-6.21,3.31-8.1,2.74-2.21,6.48-1.82,9.76-2.22,3.89-.48,7.37-.36,11.31,.1,8.4,.98,16.71,2.82,24.74,5.47Z"></path><path class="cls-6" d="M421.01,221.11c4.27,1.42,10.76,4.59,9.05,10.26-.73,2.41-2.8,4.33-4.4,6.18-1.71,1.97-3.43,3.94-5.21,5.85-3.52,3.8-7.25,7.45-11.43,10.53-4.1,3.01-8.98,6.09-14.28,5.75-4.93-.31-9.28-3.29-12.52-6.84-3.24-3.55-6.22-7.7-7.02-12.53-.87-5.23-1.15-10.69-.61-15.97,.24-2.31,.81-4.87,2.44-6.62s4.12-1.83,6.45-1.98c3.02-.2,5.96-.57,8.99-.42,3.26,.16,6.51,.62,9.73,1.15,6.38,1.06,12.67,2.61,18.81,4.63,.6,.2,1.49-.1,2.03-.37,.29-.14,.96-.57,.35-.77-6.22-2.04-12.59-3.61-19.05-4.67-3.08-.5-6.18-.94-9.29-1.14-3.03-.19-5.99,.01-9.01,.29-4.85,.45-10.63,.53-13.09,5.59-1.11,2.28-1.31,4.91-1.43,7.4-.15,3.05-.07,6.12,.2,9.16,.25,2.75,.52,5.62,1.61,8.19s2.6,4.75,4.28,6.84c3.28,4.1,7.39,7.69,12.65,8.87,11.26,2.52,22.12-6.51,29.5-13.87,2.31-2.3,4.51-4.72,6.66-7.17,1.99-2.26,4.37-4.52,5.86-7.16,1.49-2.65,.96-5.6-.96-7.89-2.01-2.39-5.06-3.5-7.93-4.45-.6-.2-1.49,.1-2.03,.37-.29,.15-.96,.57-.35,.77Z"></path></g><g class="cls-3"><path class="cls-1" d="M422.2,220.54c2.36,.78,4.75,1.66,6.65,3.26,1.9,1.6,3.23,4.09,2.83,6.54-.33,1.98-1.69,3.61-3,5.13-6.42,7.45-12.96,15.01-21.22,20.35-4.09,2.65-8.79,4.76-13.65,4.45-4.78-.3-9.18-2.94-12.46-6.42-2.96-3.13-6.66-8-7.44-12.3-.94-5.16-1.23-11.04-.81-16.27,.24-2.99,.97-6.21,3.31-8.1,2.74-2.21,6.48-1.82,9.76-2.22,3.89-.48,7.37-.36,11.31,.1,8.4,.98,16.71,2.82,24.74,5.47Z"></path><path class="cls-1" d="M421.04,221.23c4.22,1.4,10.72,4.44,9,10.08-.73,2.37-2.84,4.3-4.42,6.13-1.71,1.97-3.43,3.94-5.21,5.85-3.52,3.8-7.27,7.41-11.44,10.48-4.06,2.99-8.94,5.93-14.17,5.74-4.97-.18-9.35-3.17-12.6-6.73-3.24-3.54-6.2-7.64-7.01-12.47-.88-5.27-1.2-10.83-.57-16.15,.26-2.24,.83-4.7,2.47-6.35,1.69-1.68,4.18-1.73,6.42-1.87,2.97-.19,5.87-.56,8.86-.44,3.23,.13,6.46,.58,9.65,1.1,6.45,1.04,12.81,2.59,19.02,4.63,.66,.22,1.46,.09,2.05-.28,.31-.19,.95-.86,.27-1.09-6.16-2.02-12.45-3.6-18.84-4.67-6.19-1.04-12.27-1.59-18.53-.94-2.58,.27-5.18,.21-7.67,1.07-2.38,.82-4.3,2.39-5.39,4.68s-1.32,5.1-1.43,7.71c-.12,2.97-.05,5.95,.22,8.91,.25,2.75,.52,5.62,1.61,8.19,1.05,2.5,2.61,4.8,4.3,6.91,3.28,4.1,7.34,7.61,12.54,8.92,5.56,1.39,11.3-.41,16.14-3.15s9.52-6.71,13.59-10.81c2.26-2.28,4.43-4.65,6.55-7.06,2.02-2.3,4.51-4.62,5.93-7.37,1.38-2.67,.81-5.59-1.08-7.87-2-2.4-5.07-3.55-7.95-4.51-.66-.22-1.46-.09-2.05,.28-.32,.2-.95,.86-.27,1.09Z"></path></g><g><path class="cls-2" d="M391.99,201.51c-.4,1.92-.79,4.02,.08,5.78,.27,.55,.78,1.09,1.39,1.02,.39-.04,.7-.33,.95-.63,1.2-1.45,1.47-3.46,1.42-5.35-.02-.93-.23-2.02-1.09-2.39-.56-.24-1.24-.04-1.71,.36s-.74,.98-.94,1.56"></path><path class="cls-2" d="M390.56,201.76c-.35,1.66-.72,3.46-.24,5.12,.21,.72,.6,1.53,1.32,1.86,.53,.24,1.13,.21,1.69,.1,.73-.14,1.46-.41,2.03-.89,1.26-1.05,1.73-2.82,1.88-4.38,.12-1.22,.3-3.25-.93-4.03-1.06-.67-2.67-.23-3.69,.27s-1.58,1.28-1.94,2.29c-.18,.5,.96,.35,1.17,.31,.38-.07,.76-.18,1.1-.35,.19-.1,.51-.24,.59-.46,.09-.27,.2-.54,.34-.79,.06-.11,.12-.21,.19-.31,.02-.03,.29-.29,.29-.31,.01,.09-.69,.2-.72,.2-.47,.06-.31,0-.15,.08,.21,.1,.39,.28,.51,.48,.54,.92,.44,2.23,.36,3.25-.1,1.17-.42,2.36-1.09,3.34-.13,.19-.32,.33-.44,.52,.03-.05,1.49-.32,1.45-.36-.02-.02-.1-.04-.12-.07-.13-.1-.26-.2-.37-.33-.38-.46-.57-1.11-.68-1.68-.28-1.46,.02-2.94,.32-4.37,.11-.51-.9-.36-1.17-.31-.38,.07-.76,.18-1.1,.35-.18,.09-.55,.25-.59,.46h0Z"></path></g><g><path class="cls-2" d="M408.78,204.04c-.56,1.15-.88,2.43-.93,3.71-.02,.55,.04,1.16,.45,1.52,.38,.32,.95,.33,1.4,.12s.79-.59,1.09-.99c.85-1.16,1.38-2.56,1.51-3.99,.06-.65,.01-1.37-.45-1.83-.65-.64-1.82-.37-2.43,.31-.61,.68-.81,1.62-.98,2.52"></path><path class="cls-2" d="M407.43,204c-.39,.82-.71,1.67-.87,2.57-.14,.76-.28,1.68-.07,2.44,.26,.93,1.13,1.34,2.04,1.35,1.15,.02,2.33-.47,3.11-1.31,1.15-1.24,1.9-2.93,2.1-4.6,.09-.76,.1-1.56-.34-2.22-.53-.79-1.61-.94-2.48-.84-1.15,.14-2.26,.68-2.97,1.61-.56,.74-.77,1.68-.94,2.57-.22,1.12,2.7,.66,2.9-.35,.1-.52,.23-1.16,.41-1.58,.06-.13,.13-.26,.21-.38,.04-.06,.08-.12,.12-.18,0,0,.12-.14,.04-.05s.06-.04,.07-.06c.11-.13-.19,.11-.04,.03,.03-.02,.1-.05,.12-.07-.18,.09-.21,.11-.12,.06,.11-.05,.06-.03-.16,.05,.1-.03,.25-.03-.12,.01,.05,0,.2,0,0,0-.3,0,.17-.02-.08,0-.17,.01,0,0,.05,.02h.04c-.12-.03-.14-.03-.06,0,0,0,.1,.06,.11,.06-.12-.08,0,0,.02,.03,.07,.08,.14,.14,.19,.23,.21,.36,.19,.93,.14,1.37-.14,1.19-.53,2.32-1.19,3.31-.08,.13-.17,.25-.26,.37-.04,.06-.09,.11-.13,.17,.03-.04,.13-.13-.03,.03-.05,.05-.1,.1-.15,.15-.08,.08-.14,.05,.01,0-.03,.01-.17,.12-.02,.02,.1-.05,.09-.05-.02,0l.19-.07c.12-.04,.24-.05,.36-.05,.14,0,.13,.09,.03,0,.02,.02,.16,.13,0-.02,.04,.03,.06,.08-.04-.04-.14-.16-.2-.32-.24-.58-.1-.61,.01-1.32,.14-1.95,.14-.69,.35-1.38,.65-2.01,.61-1.27-2.28-.96-2.7-.08h0Z"></path></g><g><path class="cls-6" d="M360.5,187.06c1.17-6.63,4.25-12.75,7.3-18.76,.8-1.57,1.62-3.17,2.88-4.4,1.27-1.22,3.08-2.02,4.8-1.62,2.18,.51,3.49,2.7,4.4,4.74,2.89,6.54,4.15,13.8,3.63,20.93"></path><path class="cls-1" d="M361.95,186.87c.86-4.68,2.61-9.11,4.64-13.39,1.05-2.22,2.13-4.45,3.31-6.6,.85-1.54,2.37-4.18,4.48-3.85,1.95,.3,3.15,2.46,3.9,4.07,.98,2.1,1.74,4.32,2.35,6.56,1.28,4.72,1.76,9.62,1.43,14.5-.08,1.14,2.83,.57,2.89-.38,.29-4.32,0-8.67-.93-12.9-.48-2.15-1.12-4.27-1.91-6.33-.65-1.69-1.36-3.44-2.5-4.88-2.33-2.95-6.33-2.76-9.21-.7-1.56,1.12-2.61,2.73-3.49,4.41-.98,1.86-1.91,3.75-2.83,5.64-2.2,4.55-4.13,9.24-5.04,14.22-.2,1.07,2.72,.59,2.89-.38h0Z"></path></g><g><path class="cls-6" d="M414.68,196.62c1.89-5.4,2.15-11.21,2.39-16.93,.06-1.49,.12-3.02-.31-4.45s-1.44-2.78-2.88-3.19c-1.83-.53-3.71,.54-5.23,1.69-4.86,3.64-8.81,8.49-11.39,13.99"></path><path class="cls-6" d="M416.06,196.75c1.23-3.59,1.84-7.31,2.14-11.08,.16-1.96,.24-3.92,.33-5.88,.08-1.79,.2-3.73-.49-5.43-1.27-3.15-4.46-4.11-7.51-2.89s-5.81,3.95-8.03,6.35c-2.69,2.9-4.91,6.21-6.61,9.77-.68,1.43,2.24,1.35,2.75,.27,1.59-3.33,3.63-6.41,6.12-9.13,1.25-1.36,2.59-2.63,4.04-3.77,1.28-1.02,3.19-2.74,4.89-1.68,1.55,.97,1.94,3.06,1.97,4.75,.04,2.1-.13,4.23-.27,6.32-.26,4.1-.75,8.24-2.08,12.14-.52,1.53,2.36,1.4,2.75,.27h0Z"></path></g><path class="cls-1" d="M372.33,170.06c1.69,5.99,2.12,12.24,1.24,18.4-.17,1.19,2.76,.7,2.9-.34,.9-6.29,.48-12.72-1.25-18.84-.3-1.06-3.2-.28-2.9,.78h0Z"></path><g class="cls-4"><path class="cls-1" d="M405.67,225.6c-1.22-1.89-4.17-2.12-5.96-.77s-2.45,3.86-2.03,6.07,1.76,4.14,3.33,5.76c3.57,3.67,8.72,6,13.79,5.38s9.79-4.63,10.44-9.7c.15-1.13,.04-2.42-.81-3.18-.78-.7-1.96-.73-2.97-.45-1.01,.28-1.91,.84-2.89,1.2-1.02,.38-2.11,.56-3.19,.73-1.54,.24-3.15,.46-4.64-.03-1.48-.48-2.79-1.89-2.62-3.44"></path><g><path class="cls-1" d="M405.7,227.07c.05-.21-.37-.18-.44-.22,.06,.39,.55,.21,.44,.22Z"></path><path class="cls-1" d="M407.32,229.73l-.17,.05c.19,.04,.37,.07,.55,.08-.13-.03-.26-.08-.39-.13Z"></path><path class="cls-1" d="M408.91,231.36c.24-.69-.72-.37-.84-.88l.07-.16c-.18,.09-.36,.17-.55,.25,.43,.35,1.15,.44,1.31,.79Z"></path><path class="cls-1" d="M409.41,233.35c.02-.3,.39-.09-.29-.22,.02,.04,.02,.06,.03,.09,.06,.02,.13,.06,.26,.13Z"></path><path class="cls-1" d="M409.15,233.22c-.29-.11,.09,.3,0,0h0Z"></path><path class="cls-1" d="M410.45,233.5c-.13,.05-.27,.1-.41,.15,.03,.18,.34,.3,.19,.39,.41-.04,.35-.22,.22-.53Z"></path><path class="cls-1" d="M410.88,233.06l-.19,.07c.01,.07,.06,.11,.19-.07Z"></path><path class="cls-1" d="M410.27,233.25c.14-.04,.28-.08,.41-.12-.02-.12,.03-.35-.18,.04,.08-.2-.04-.01-.23,.09Z"></path><path class="cls-1" d="M410.1,233.09c-.14-.2-.35-.39,.06-.5-.66-.13-.76,.37-.06,.5Z"></path><path class="cls-1" d="M409.41,230.8c-.02-.1-.04-.19-.05-.28l-.28,.09c.13-.04,.22,.39,.33,.19Z"></path><path class="cls-1" d="M412.48,234.13c.02-.15-.1-.41-.11-.6l-.24,.16c.11,.11,.34,.22,.35,.44Z"></path><path class="cls-1" d="M412.37,233.53l.34-.25c-.29-.04-.35,.09-.34,.25Z"></path><path class="cls-1" d="M411.09,232.29c-.21,.15-.43,.28-.67,.4,.27-.12,.53-.25,.77-.39h-.1Z"></path><polygon class="cls-1" points="413.77 234.11 413.61 234.47 413.9 233.92 413.77 234.11"></polygon><path class="cls-1" d="M414.54,233.98c-.09,.3,.23,.47,.12,.66,.2-.08,.34-.35,.46-.59-.14,.15-.32,.14-.58-.07Z"></path><path class="cls-1" d="M415.32,233.69c-.06,.08-.13,.22-.2,.36,.08-.08,.15-.19,.2-.36Z"></path><path class="cls-1" d="M413.25,233.34c.03,.09,.08,.33,.27,.42l-.15-.42s-.08,0-.12,0Z"></path><path class="cls-1" d="M413.37,233.32h0c.13,.02,.22,.02,.26,.02-.03,0-.11,0-.27-.02Z"></path><path class="cls-1" d="M413.22,233.34h.03s-.02-.05-.03,0Z"></path><path class="cls-1" d="M411.88,232.8c.22-.22,.59-.46,.26-.84-.15,.28,.05,.51-.26,.84Z"></path><path class="cls-1" d="M413.05,232.81l-.33-.09c0,.11,.07,.28-.03,.4l.35-.3Z"></path><polygon class="cls-1" points="413.2 232.67 413.05 232.81 413.17 232.84 413.2 232.67"></polygon><path class="cls-1" d="M414.76,233.36c.11-.2,.24-.24,.39-.29-.18-.06-.35-.08-.52-.06,0,.14-.05,.38,.13,.35Z"></path><path class="cls-1" d="M414.1,233.32l.03-.03s-.04-.04-.03,.03Z"></path><path class="cls-1" d="M416.63,232.85s-.03-.05-.04-.07v.07s.04,0,.04,0Z"></path><path class="cls-1" d="M414.59,232.94c-.14-.07-.2,.05-.26,.19,.09-.05,.19-.09,.3-.11,0-.06,0-.1-.04-.08Z"></path><path class="cls-1" d="M415.71,233.43c-.08-.08-.16-.14-.24-.2,.08,.12,.24,.31,.24,.2Z"></path><path class="cls-1" d="M414.18,233.4s-.01,.02-.02,.02c.05,.09,.04,.04,.02-.02Z"></path><path class="cls-1" d="M414.18,233.4c.06-.07,.1-.18,.15-.28-.08,.04-.14,.1-.21,.17,.02,.03,.04,.07,.06,.11Z"></path><path class="cls-1" d="M416.58,230.07c.06,.39-.19,.81-.52,.44-.21,.33,.16,1.59,.53,2.27-.02-.17-.05-.33,.19-.61-.14-.19-.7-.39-.53-.78,.33-.26,.32,.09,.54,.26-.24-.46,.33-.8,.1-1.49l-.25,.31c-.03-.11,.05-.31-.05-.39Z"></path><path class="cls-1" d="M416.05,232.82l-.1,.07c.14,.05,.26,.19,.48,.47,.16-.22,.18-.38,.17-.51l-.58,.04,.03-.06Z"></path><path class="cls-1" d="M415.44,232.97c.02-.44,.26-.66,.03-1.1-.32,.08-.18,.39-.35,.6,.52-.19-.12,.26,.31,.44-.1,.09-.19,.12-.28,.16,.11,.04,.21,.09,.31,.15l-.02-.02h0s0,0,0,0c-.03-.05-.04-.08-.01-.05,0,0,0-.01,0-.01,0-.06,0-.11,0-.16,.17,.06,.04,.11,0,.16v.06s0,0,0,0l.5-.32c-.12-.04-.26,0-.5,.08Z"></path><path class="cls-1" d="M412.48,231.04s.01,.07,.01,.1c.04-.05,.05-.09-.01-.1Z"></path><path class="cls-1" d="M412.7,231.31c-.04,.06-.08,.23-.21,.18-.11-.13,0-.21,0-.35-.08,.11-.29,.3-.05,.52l.04-.06c.22,.16,.53,.69,.5,.75-.08-.39-.14-.66-.29-1.04Z"></path><path class="cls-1" d="M414.05,232.08l.44-.26-.27-.34,.04,.22c-.27-.06-.18,.21-.2,.38Z"></path><polygon class="cls-1" points="416.72 233.05 416.73 233.51 416.9 232.83 416.72 233.05"></polygon><polygon class="cls-1" points="417.33 232.88 417.39 233.27 417.51 233 417.33 232.88"></polygon><path class="cls-1" d="M409.11,244.02l-.17,.07c.08-.02,.13-.04,.17-.07Z"></path><path class="cls-1" d="M410.15,244.26l.06-.19c-.07,.1-.1,.17-.06,.19Z"></path><path class="cls-1" d="M422.32,233.75c-.4,0-.97-.1-.56,.06l.41,.13c-.04-.12,.03-.17,.14-.2Z"></path><path class="cls-1" d="M418.07,241.26l.1,.1c-.02-.15-.03-.3-.05-.43-.02,.1-.04,.21-.05,.33Z"></path><path class="cls-1" d="M418.62,242.97l-.36-.15c.09,.07,.21,.12,.36,.15Z"></path><path class="cls-1" d="M403.57,242.24l-.38,.29c.24,.14,.25-.12,.38-.29Z"></path><path class="cls-1" d="M421.59,231.3c0,.19,.02,.27,.05,.3,.04-.29,.08-.72-.05-.3Z"></path><path class="cls-1" d="M410.5,239.62c-.08,.06-.13,.14-.15,.23,.08-.06,.14-.13,.15-.23Z"></path><path class="cls-1" d="M421.78,231.61s.02-.08,.02-.12c-.08,.08-.14,.14-.17,.11-.03,.22-.06,.35,.15,.01Z"></path><path class="cls-1" d="M397.96,223.07s.05,0,.08,0c-.03-.05-.06-.03-.08,0Z"></path><path class="cls-1" d="M403.58,226.18s-.07-.01-.11-.02c0,.04,.04,.04,.11,.02Z"></path><path class="cls-1" d="M420.08,232.24c-.12,.08,0,.05,0,0h0Z"></path><path class="cls-1" d="M418.81,230.9c.01-.06,0-.12-.02-.22,.03,.1,.03,.17,.02,.22Z"></path><path class="cls-1" d="M424.31,228.97h0c.02-.08,.02-.06,0,0Z"></path><path class="cls-1" d="M419.8,232.15c.07,.03,.15,.04,.22,.05-.04-.02-.11-.04-.22-.05Z"></path><path class="cls-1" d="M419.9,232.33c-.06,0-.1,0-.14,.01,0,.07,.04,.11,.14-.01Z"></path><path class="cls-1" d="M420.25,232.14c-.07,.04-.15,.05-.23,.05,.04,.02,.06,.03,.06,.05,.04-.02,.09-.05,.17-.1Z"></path><path class="cls-1" d="M397.77,234.66s0-.03,.02-.05c-.22-.02-.17,.01-.02,.05Z"></path><path class="cls-1" d="M424.66,238.6s0-.02,0-.03h-.02s.03,.03,.03,.03Z"></path><path class="cls-1" d="M424.59,239.2c-.27-.51-.14-.55,.04-.62l-1.07-.65c.35,.41,.7,.84,1.03,1.27Z"></path><path class="cls-1" d="M406.65,243.37l.19,.49c-.63,.45-.86,.13-.73,.76,.53-1.24,1.39,.36,1.86-.93l.14,.34c-.06-.03-.09,.04-.15,0,.25,.76,.59-.83,1.08-.51,.16,.15,.25,.37,.08,.5l.51-.22c.12,.05,.04,.28-.08,.22l.69,.02v.04c.12-.19,.39-.48,.51-.6,.13,.22-.1,.13-.09,.3,.14-.08,.27-.18,.41-.28,.1,.36-.25,.68-.5,.58,.15,1.4,.35-.3,1.02,.58l-.38,.13c.15,.79,.47,.56,.88,1.05-.11-.25-.75-1.27-.3-1.57,.11,.11,.26,.17,.5-.1-.03,.48,.2,.38,.48,.36l-.04,.64c.31-.17,.29-.51,.47-.8,.33,.06,.41,.55,.51,.97,.55,.09-.4-.79,.23-.92,.45,.21,.76-.07,1.22-.51,.33,.17,0,.4,.13,.56l.2-.55c.07,0,.07,.16,.07,.24,.2-.23-.08-.63,.23-.86-.06-.69,.92,.86,1.17-.03,.15,.15,.05,.39,.15,.62,.45-.67,.4-.52,.64-1.34,.17,.09,.35,.18,.53,.26-.45-.34-.29-1.01-.19-1.56-.18-.18-.33-.33-.41-.4l.29-.49c.09,.07,.14,.29,.18,.57,0-.06,.02-.12,.02-.17,.25,.15,.33,.52,.35,.9-.1-.09-.21-.19-.32-.29,.04,.4,.09,.85,.25,1.19,0-.08,.04-.17,.1-.23,0,.11,.02,.21,.06,.26,.04,.06,.04-.1,.06-.28l.4,.61-.09-.27c.28,.05,.56,.07,.85,.09,.16-.87,0-2.01,.43-2.63,.13,.53,.43,.74,.77,1.26-.54-.44-.38,.56-.82,.67,.22-.05,.33,.23,.33,.35,.12-.31,.23-.61,.34-.9,.26,.43,.35,.24,.62,.3-.68-.75,.08-.87,.13-1.29,.22,.26,.37,.57,.02,.73,.8,.36-.28-1.24,.41-.99-.06,.06-.13,.05-.05,.21-.03-.36,.51-.5,.61-.21l-.06,.06c.55-.29,1.34-1.29,.73-1.91,.09,.07,.72,.73,.82,.88-.47-.91-.98-1.77-1.58-2.58,.52,.52,2.14,1.27,2.16,1.93,.17-.05,.38-.14,.36-.54-.15,.03-1-.42-.98-.56,.87,.18,.51,.07,1.33,.05-.21,.04-1.08-.72-.94-.88,.13,.12,.98,.57,1.03,.71-.21-.37-.44-.72-.67-1.06,.11,.22,.82,.49,1.16,.52-.22-.05,.26-.46,.23-.66l-.35,.11c.47-.54-1.16-1.24-.9-1.75,.2,.14,1.26,.69,1.53,.4-.24-.17-.83-.59-1.44-.95-.6-.36-1.21-.63-1.39-.79l.35-.05c-.11-.1-.23-.18-.34-.25,.43,.05,1.12,.21,1.7,.54,.58,.31,1.1,.79,1.37,1.16,.33-.25,.4,0,.5-.49,.35-.13,.39,.37,.36,.53,.17-.4,.36-.81,.51-1.24-.68,0-.56-.94-1.13-.84,.17,.37,.4,.78,.49,1.24-.34-.02-.75-.26-1.09-.52-.34-.27-.58-.54-.47-.85,.3-.2,1.19-.02,1.42-.04-.21-.09-.37-.65-.22-.76,.12,.08,.24,.16,.36,.25,.26-.53-.87-.46-.29-1.14,.03-.17,.73-.88,.35-.74-.33,.32-1.06,.72-1.78,1.05-.34,.16-.75,.33-1.1,.47-.34,.14-.62,.24-.77,.29,.07-.03,.73-.84,1.07-1.27,.31-.32,.57-.42,.92-.53,.32-.11,.66-.18,.85-.42-.16,.09-.4,.08-.49,.07,.07-.24,.51-.26,.29-.55-.57,.35-.3-.67-.54,.2-.31-.17-.06-.4-.33-.71-.09,.16-.31,.31-.55,.44-.25,.14-.49,.22-.76,.36-.14,.06-.26,.12-.34,.13,.15-.16,.31-.45,.34-.54-.43-.36-.6-.73-1.16-.83,.02-.16-.2-.38,.02-.65-.13,.11-.29,.32-.48,.34-.2-.59,.46-.08,.39-.78-.16,.38-.69,.51-.99,.8-.04,.6,.55,.06,.92-.15-.29,.74-1.05,1.84-1.44,2.35-.31,.3-.07-.58-.13-.43-.31,0-.44,.46-.5,.83-.07,.37-.07,.64-.31,.41-.29-.46-.28-1.05-.41-1.42,.27-.35,.53,.14,.7,.05-.08-.06-.18-.12-.27-.17,.07-.22,.29-.46,.41-.33-.24-.46-1.28,.44-2.01,.29-.03,.21-.13,.46,.04,.62l.16-.15c.35,.32-.12,.71,.21,.79-.13,.39-.3,.98-.8,.88l-.26-.56c.06,.17,.38,.26,.43,.04-.09,.32-.84-.59-.8,.22l.4,.33c-.2,.38-.43,1.11-.85,1.01,.3,.55,.07-.08,.5,.54-.46-.79,1.02-.23,.38-1.02,.52,.7,.59,.19,1.22,.7-.08-.18-.27-.31,.1-.35,0-.06,0-.14,0-.19,.01,0,.02,0,.03,0h-.03s0-.05,0-.02c-.11-.05-.21-.12-.28-.22,0-.49,.46-.68,.5-.96,.2,.01,.03,.24,.21,.4,.03-.15,.03-.28,.03-.41,.23,.39,.46,.61,.42,.92l.11-.03c.14,.21,.2,.29,.22,.08,.04,.09,.08-.57,.06-.18,.05-.12,.11-.24,.18-.37v.12c.08,0,.21-.23,.36-.35,.14-.12,.32-.12,.23,.36,.12-.12,.28-.26,.31-.08l-.25,.44c.18-.11-.16,.49,.2,.1-.42,.54-.47,.61-.4,.6,.07-.01,.25-.06,.16,.04l.54-.32c-.01,.1,.15,.09,.37,.15l.48-.19c.4,.04-.35,.5-.35,.66-.18,0-.12-.05,0-.1-.56,.18-.37,.22-.18,.36,.19,.12,.39,.35,0,.36,.13,.12,.05,.16-.08,.19,0,0,0-.02-.01-.03,0,0-.02,.02-.02,.04-.09,.01-.19,.03-.27,.04,.12,0,.21,0,.27-.02-.02,.08-.01,.21,.05,.36l-.46-.14s0,.02,0,.03c-.2,.03,.17,.18,.53,.27,.05,.09,.11,.18,.19,.27-.75-.25,.08,.41-.71,.15,.34,.27-.04,.67,.64,1.19-.1-.06-.16-.05-.13-.11-.16,.07-.31,.15-.19,.39l-.54-.3c.16,.24,.32,.49,.48,.74-.42-.06-.63-.14-.89-.57,.31,.81-.01,.44,.28,1.22l-.28-.28c-.08,.11,.16,.66-.15,.49-.4-.16-.66,.12-1.03,.39-.35,.29-.78,.58-1.3,.51,.77,.89-.59-.25-.14,.53-.19-.21-.36-.29-.37-.56-.2,.45-.71-.09-.6,.7-.16-.23-.11-.4-.22-.53,0,.07,0,.27-.11,.14-.11-.13-.05-.23-.05-.37-.31,.22,0,1,.3,1.74-.36-.26-.43-.17-.38,.38-.17-.21-.38-.42-.17-.61-.15,.04-.96-.06-.79,.56-.09-.14-.21,.02-.23,.1-.34,.04-.38,0-.69,.13l.11,.08c.04,.79-.24,.24-.49,.37v-.08c-.7-.46-.24,.33-.93-.25l.08,.47c.03,1.03-.61-.54-.93-.16l.14,.27c-.21,.35-.57-1.39-.73-1.52-.04-.09,.06-.14,.12-.21-.44-.63-.07,.63-.44,.75-.05-.34,.12-.86-.1-.93-.07-.26-.78,1.03-1.04,.35,.03,.27,.07,.53-.13,.71-.29,.04-.52-1.09-.92-.34-.02-.08-.01-.15,0-.21-.24,.16-.72,.19-.97,.58,.13-.83-.22-.72-.57-.61-.35,.11-.7,.22-.42-.49-.21-.05-.41-.09-.62-.16l.08-.14c-.32-.26-.61,.03-.9,.29-.04-.14,.08-.23,.12-.3-.4-.55-.46-.49-1.28-.09l.2-.46c-.28,.18-.33-1.1-1.12-.94,.04-.04,.1-.11,.18-.15-.91,.08-.37-1.99-1.7-.77l-.63,.04c.35,.5-.59,.53-.6,.91-.26-.09-.1-.81,.18-.69l-.03,.1c.7-.62-.31-.75,.16-1.2-.85-.76-1.13-1.93-1.59-2.73l-.56,.49-.15-.32c.1-.17,.43-.39,.53-.18,.29-.32-.5-.16-.65-.1,.04-.55,.83-.26,.78-.39l-.14-.13-.06,.08c-.33,0-.63,.14-.72-.13,.05-.23,.37-.27,.36-.35,.05-.02,.06-.05-.02-.1-.03-.13-.07-.26-.09-.38l-.48,.36c-.33-.07-.11-.38-.66,.03,.81-.61-.07-1.61,.26-1.83-.44-.2-.44-.48-.38-.78-.12,.07-.78,.1-.68-.2,1.32,.21,.62-.47,1.62-.47-.67,.04,0-.69-.93-.67,.17-.18,.48,.13,.83,.08-.18-.3,.02-.53,.25-.69,.24-.16,.5-.26,.6-.49-.12-.13-.39-.23-.5-.5,.28,.12,.56,.27,.81,.43,0-.12-.6-.82-.07-.47-.11-.1-.28-.25-.26-.34,.64,.06,.96-.25,1.52-.4,.5-.16,1.24,0,1.2,.91,.06-.35,.13-.35,.21-.33-.01-.1,.2-.39,.3-.6,.04,.26,.02,.52-.03,.76,.47-.48,.32,.22,.79-.16-.06-.02-.12-.02-.18-.03,.33-.19,.6-.51,.82-.91,.23-.4,.39-.89,.72-1.23-.44,.19-.42-.21-.57-.61-.12-.4-.42-.79-.97-.34-.08-.24,.23-.24,.23-.48-.33,.31-.53,.33-.88,.06l.07-.09c-.56-.08-.95-.18-1.37-.31-.42-.11-.89-.27-1.6-.25l.2,.44c-.28,0-.38-.13-.54-.2-.11,.76,.77-.16,.67,.69-.26-.44-.75-.33-1.2-.16-.45,.16-.87,.37-1.29,0-.4,.26,.41,.38,.03,.63l-.27-.17,.15,.37c-.25,.12-.61-.06-.78-.24,.08-.03,.11-.19,.16-.26-.56-.01-.73,.86-.89,.88,.14-.07,.28-.14,.43-.2-.32,.54-.74,1.05-1.05,1.62-.3,.57-.48,1.19-.34,1.77h.24c.2,.83-.41,.53-.35,1.41l-.05-.04c.2,.2,.3,.42,.25,.64-.25-.23-.52,.38-.8,.09,.43,.87,.35,.45,1.19,.93l-.36,.15c.36,.15,.52,.14,.67,.5-.37-.27-.52,.35-.99,.04-.33,.52-.05,.81,.16,1.02,.22,.22,.38,.36-.12,.74,1.09,.05,.32-.87,.6-.73,.28-.25,.81,.08,.8,.33,.06,.23-1.1,.86-.8,1.5-.02-.06-.1-.04-.12-.1-.13,.35,.53,.3,.3,.77,.63-.14,.16,.38,.88,.03-.15-.14-.3-.29-.45-.44,.35,.22,1.29,.02,1.18,.69-.16,.05-.42,.03-.58,0-.12,.26,.29,.18,.18,.45-.69,.39-.53-.51-1.23-.56-.21,.34,.85,.34,.02,.61,1.07-.33,.24,.66,1.19,.56l-.41,.25c.1,.02,.37,0,.44,.12l-.64,.17c.64-.01,.06,.86,.51,.96-.47-.58,.34-.49,.43-.94,1.04,.28-.66,1.19,.19,1.81-.15-.06-.13-.57,.18-.56,.05,.21,.09,.51-.02,.77,.53,.41,.29-.41,.69-.4-.27,.56,.39,.07,.72,.13l-.34,.34c.31,.73,.84-.58,1.04,.13l-.66,.3c.12,.04,.24,.08,.37,.11l-.43,.36c.56-.05,.57,.1,.75,.47,.16-.32,.6-.63,.86-.45-.01,.36-.39,.28,.01,.51-.27,.17-.6,.39-.47-.08-.12,.11-.27,.17-.39,.27-.02,.41,.43,.44,.57,.54-.04-.06-.09-.12-.07-.2,.32-.03,.62-.07,.94-.12-.02,.21-.18,.28-.33,.34,.14,.04,.35-.09,.53,0-.27,.29-.5,.63-.84,.6l.79,.03c-.06,.17,.01,.58-.14,.65,.2,.39,1.16-.14,1.42,.35,.06-.05,.14-.09,.26-.09,.34,.3,.48,.92,1.21,.68l-.03,.77c.46,.03,0-.97,.75-.93,.53,0-.08,.62,0,.87,.38-.22,1.02-.73,1.24-.04-.19,.07-.26-.07-.41-.07Zm5.11,.9c-.11,.09-.34,.38-.39,.09,.17-.54,.23-.26,.39-.09Zm7.32-2.45c0,.18-.13,.16-.32,.04,.07-.07,.16-.1,.32-.04Zm1.69-10.32s0-.01,0-.02c.11,.16,.07,.09,0,.02Zm-.22-.13c0,.07,.03,.13,.06,.19-.03-.12,0-.15,.05-.13-.05-.12-.1-.19-.11-.06Zm-20.49,.68l-.09,.11c-.19-.08-.05-.09,.09-.11Z"></path><path class="cls-1" d="M418.56,242.77c-.06-.06-.1-.15-.14-.23,0,.09,.03,.18,.14,.23Z"></path><path class="cls-1" d="M403.64,242.19s0,0-.01-.01c-.02,.02-.04,.04-.06,.07l.07-.05Z"></path><path class="cls-1" d="M426.82,229.23c-.01,.14-.07,.25-.14,.34,.1-.06,.18-.16,.14-.34Z"></path><path class="cls-1" d="M418.64,232.99l.28-.22c-.15,.07-.23-.02-.33-.07,.04,.11,.14,.25,.05,.28Z"></path><path class="cls-1" d="M415.62,230.56c-.03,.06-.08,.02-.11,.08l.04,.22c.16-.04,.24-.24,.06-.3Z"></path><path class="cls-1" d="M417.94,231.51c-.12-.39-.26-.21-.44-.09,.01,0,.02-.01,.03,0,.07,.57,.24,.33,.4,.1Z"></path><path class="cls-1" d="M417.46,231.45c-.06,.03-.11,.06-.18,.05,.03,.23,.08,.03,.18-.05Z"></path><path class="cls-1" d="M420.36,231.76c-.13-.06,.16,.5,.04,.37,.06,.26,.14,.05,.16-.17,.02-.11-.03-.2-.05-.26-.02-.06-.05-.07-.15,.05Z"></path><polygon class="cls-1" points="417.46 230.26 417.65 230.73 417.65 230.31 417.46 230.26"></polygon><path class="cls-1" d="M418.97,230.16l-.33-.02c.03,.08,.01,.14-.02,.19,.18-.05,.41-.03,.35-.17Z"></path><path class="cls-1" d="M418.62,230.32c-.09,.03-.18,.06-.21,.16,.05-.02,.15-.07,.21-.16Z"></path><polygon class="cls-1" points="417.81 230.01 417.92 230.09 418.12 230.06 417.81 230.01"></polygon><path class="cls-1" d="M421.66,229.17c.1-.08,.2-.15,.31-.22,.07-.2,.01-.31-.12-.21-.1,.15-.21,.25-.19,.43Z"></path><path class="cls-1" d="M420.74,228.01c.11,.07,.12,.18,.18,.34l-.02-.64-.16,.3Z"></path><path class="cls-1" d="M421.83,227.58c.05-.19,.67-.57,.14-.48-.07,.18-.47,.39-.14,.48Z"></path><path class="cls-1" d="M425.5,230.69l-.02-.08-1.04,.58c.35-.17,.77-.38,1.06-.51Z"></path><path class="cls-1" d="M427.01,236c.4-.35-.54-.34-.1-.62-.19-.18-.36,.23-.51,.05,.14,.35-.05,.43,.61,.58Z"></path><path class="cls-1" d="M426.4,235.42c-.02-.06-.05-.12-.09-.18,.03,.09,.06,.15,.09,.18Z"></path><path class="cls-1" d="M403.55,226.84c-.03,.07-.06,.14-.1,.21,.07-.09,.14-.18,.21-.27l-.11,.07Z"></path><path class="cls-1" d="M404.24,226.49l-.49,.42c.16-.1,.33-.2,.51-.3-.04,0-.12-.02-.02-.13Z"></path><path class="cls-1" d="M412.49,245.62l.03-.16c-.04-.17-.11-.19-.25-.22l.22,.38Z"></path><polygon class="cls-1" points="408.61 244.55 408.67 244.58 408.7 243.98 408.61 244.55"></polygon><path class="cls-1" d="M405.25,244.14c.12,.08,.31,.02,.43,.1-.32-.02-.16-.78-.43-.1Z"></path></g></g><g><path class="cls-6" d="M405.48,221.98c5.76,.64,11.46,1.71,17.06,3.19,1.48,.39,3.27,1.2,3.26,2.74,0,.99-.81,1.77-1.6,2.35-2.17,1.61-4.68,2.68-7.16,3.74-2.04,.87-4.28,1.75-6.42,1.17-2.15-.59-3.65-2.51-4.82-4.41-1.5-2.42-2.8-5.28-2.1-8.04"></path><path class="cls-6" d="M404.96,222.97c3.54,.4,7.06,.94,10.55,1.66,1.73,.36,3.45,.76,5.16,1.19,1.1,.28,2.9,.55,3.51,1.68,.76,1.42-1.41,2.55-2.36,3.12-1.43,.87-2.98,1.55-4.52,2.21-1.46,.63-3.01,1.43-4.63,1.51s-2.84-.77-3.85-1.88c-2.29-2.54-4.44-6.39-3.67-9.88,.29-1.33-2.66-.94-2.93,.26-.84,3.78,1.38,7.95,3.81,10.73,1.17,1.34,2.65,2.36,4.43,2.67,2.02,.35,4.03-.22,5.9-.94s3.85-1.57,5.67-2.54c1.59-.84,3.45-1.81,4.54-3.29,1-1.35,.82-2.94-.5-3.99-1.43-1.14-3.44-1.45-5.16-1.86-4.92-1.19-9.91-2.06-14.93-2.63-.65-.07-1.59,.23-1.89,.86s.27,1.05,.86,1.12h0Z"></path></g><path class="cls-1" d="M264.61,231.31c-1.89,.55-3.59,1.74-4.38,3.58-.09,.21,.12,.37,.28,.44,.27,.12,.67,.1,.94,.06,.38-.06,.77-.16,1.1-.36,.23-.14,.45-.29,.57-.55,.07-.16,.14-.31,.23-.46l-.11,.19c.23-.41,.52-.77,.85-1.1l-.19,.19c.13-.13,.27-.25,.42-.37,.07-.06,.15-.11,.23-.16,.17-.12-.29,.18-.11,.07,.04-.02,.08-.05,.12-.07,.08-.05,.16-.09,.24-.14,.04-.02,.08-.04,.13-.06l-.24,.12s.06-.03,.09-.04c.08-.03,.16-.07,.24-.1,.07-.02,.26-.09-.04,0s-.08,.03-.01,0c.33-.1,.7-.23,.98-.46,.12-.1,.38-.35,.31-.56-.08-.22-.33-.3-.54-.33-.35-.05-.73,0-1.07,.09h0Z"></path><path class="cls-1" d="M265.19,236.79c.54,0,1.64-.21,1.93-.74s-.26-.66-.73-.66c-.54,0-1.64,.21-1.93,.74s.26,.66,.73,.66h0Z"></path><path class="cls-1" d="M160.47,211.69l5.18,.04c.67,0,1.47-.19,2.05-.55,.11-.07,.4-.22,.35-.39s-.39-.16-.5-.16c-1.73-.01-3.45-.03-5.18-.04-.67,0-1.47,.19-2.05,.55-.11,.07-.4,.22-.35,.39s.39,.16,.5,.16h0Z"></path><path class="cls-1" d="M164.09,208.12l2.42,.02c.2,0,.4-.05,.58-.14,.19-.06,.35-.14,.51-.27,.22-.18,.49-.49,.5-.8s-.1-.59-.36-.76l-.28-.15c-.23-.08-.47-.11-.71-.1-.81,0-1.61-.01-2.42-.02-.2,0-.4,.05-.58,.14-.19,.06-.35,.14-.51,.27-.22,.18-.49,.49-.5,.8s.1,.59,.36,.76l.28,.15c.23,.08,.47,.11,.71,.1h0Z"></path><path class="cls-1" d="M228.78,141.02c1.04-.1,2.07-.2,3.11-.3,.38-.04,.78-.17,1.09-.4,.22-.17,.49-.48,.5-.78,.03-.72-.73-1.03-1.34-.97l-3.11,.3c-.38,.04-.78,.17-1.09,.4-.22,.17-.49,.48-.5,.78-.03,.72,.73,1.03,1.34,.97h0Z"></path><path class="cls-1" d="M232.47,135.03c.69,0,1.38,.01,2.07,.02,.19,0,.37-.04,.56-.08,.2-.04,.39-.09,.58-.16,.17-.06,.32-.13,.47-.22,.12-.06,.24-.15,.33-.25,.1-.13,.22-.31,.04-.44l-.18-.08c-.19-.05-.38-.06-.57-.05-.69,0-1.38-.01-2.07-.02-.19,0-.37,.04-.56,.08-.2,.04-.39,.09-.58,.16-.17,.06-.32,.13-.47,.22-.12,.06-.24,.15-.33,.25-.1,.13-.22,.31-.04,.44l.18,.08c.19,.05,.38,.06,.57,.05h0Z"></path><path class="cls-1" d="M302.5,144.56c-1.4,.78-2.79,1.56-4.19,2.33-.18,.1-.51,.3-.57,.53-.06,.2,.08,.35,.27,.41,.29,.1,.64,.09,.94,.04,.38-.06,.76-.17,1.1-.36,1.4-.78,2.79-1.56,4.19-2.33,.18-.1,.51-.3,.57-.53,.06-.2-.08-.35-.27-.41-.29-.1-.64-.09-.94-.04-.38,.06-.76,.17-1.1,.36h0Z"></path><path class="cls-1" d="M304.97,149.58c-.15,.14-.32,.27-.49,.39l.27-.18c-.15,.1-.31,.19-.48,.28l.33-.16c-.15,.07-.31,.14-.47,.19l.38-.13c-.16,.05-.33,.1-.5,.13l.39-.08c-.16,.03-.31,.05-.47,.06-.2,.02-.39,.07-.58,.14-.18,.05-.35,.13-.52,.22-.17,.1-.52,.33-.56,.57-.1,.63,.87,.56,1.23,.53s.71-.1,1.05-.19,.69-.2,1.01-.34c.62-.27,1.21-.61,1.71-1.07,.14-.13,.36-.34,.3-.57-.06-.22-.36-.32-.55-.35-.36-.05-.73-.02-1.08,.08s-.71,.22-.97,.46h0Z"></path></g></svg>