<svg transform="scale(1)" id="_0105_Chart_1" xmlns="http://www.w3.org/2000/svg" viewBox="0 0 500 500" class="show_show__wrapper__graphic__5Waiy "><title>React</title><defs><style>.cls-1{fill:#fff;}.cls-2{fill:#f5d94a;}.cls-3{fill:#231f20;}</style></defs><g id="up-arrow"><path class="cls-3" d="M230.16,155.5c5.12-14.5,13.13-27.9,23.42-39.33,5.12-5.69,10.78-10.87,16.91-15.46,3.08-2.3,6.28-4.45,9.58-6.44,1.6-.96,3.22-1.88,4.87-2.75,1.85-.99,4.15-2.37,6.24-1.27,3.13,1.64,4.03,5.86,4.35,9.06,.33,3.37,.11,6.77,.59,10.12s1.76,6.32,4.45,8.31c2.91,2.15,6.87,2.61,10.37,2.11,7.64-1.11,13.9-6.25,18.66-12.05,5.38-6.55,9.75-14.04,13.93-21.38,4.51-7.92,8.62-16.07,12.28-24.41,.92-2.1,1.82-4.22,2.69-6.35,.82-2.02,1.94-4.15,2.36-6.29,.4-2.04-.87-3.65-1.91-5.27-1.32-2.07-2.63-4.14-3.95-6.21s-2.63-4.14-3.95-6.21l-1.08,1.56c14.29-4.82,28.71-9.25,43.25-13.28-.57-.27-1.14-.54-1.71-.81-2.35,15.76-4.7,31.52-7.05,47.28,.93-.25,1.86-.5,2.79-.75-2.43-3.18-4.87-6.36-7.3-9.54-.62-.81-2.29-.32-2.71,.49-7.79,15.12-15.61,30.34-25.57,44.17-8.82,12.24-19.39,23.45-32.19,31.57-6.13,3.89-14.08,8.7-21.64,6.79-3.12-.79-6.06-2.65-7.57-5.55-1.33-2.55-1.54-5.59-1.85-8.39s-.59-5.5-2.01-7.86c-1.65-2.71-4.78-3.83-7.84-3.59-3.61,.28-7.08,2.01-10.3,3.57-3.18,1.55-6.27,3.31-9.25,5.23-11.77,7.62-21.7,18.1-28.63,30.3-.86,1.52-1.67,3.06-2.44,4.62-.7,1.43,2.22,1.36,2.75,.27,6.23-12.7,15.63-23.72,27.16-31.91,2.9-2.06,5.92-3.94,9.06-5.6,3.11-1.65,6.44-3.45,9.89-4.25,3.28-.76,6.23,.56,7.47,3.73,1.02,2.59,1.11,5.46,1.45,8.19,.36,2.9,.92,5.88,2.72,8.26,1.93,2.56,4.95,4.22,8.04,4.93,7.53,1.74,14.99-1.73,21.37-5.41,13.12-7.57,24.15-18.29,33.32-30.26,10.2-13.3,18.21-28.09,25.91-42.94,.97-1.87,1.93-3.74,2.89-5.61l-2.71,.49c2.43,3.18,4.87,6.36,7.3,9.54,.65,.85,2.64,.28,2.79-.75,2.35-15.76,4.7-31.52,7.05-47.28,.13-.89-1.17-.96-1.71-.81-14.53,4.03-28.95,8.46-43.25,13.28-.61,.21-1.57,.78-1.08,1.56,2.59,4.07,5.18,8.15,7.77,12.22,.55,.87,1.24,1.75,1.62,2.71,.51,1.29-.03,2.5-.5,3.71-.81,2.07-1.64,4.13-2.5,6.18-3.5,8.33-7.42,16.48-11.76,24.41s-8.59,15.26-13.77,22.25c-4.36,5.89-10.12,12.06-17.69,13.4-3.51,.62-7.5,0-9.96-2.79-2.2-2.49-2.67-5.91-2.84-9.11-.18-3.39-.02-6.86-.78-10.19-.7-3.09-2.46-6.48-5.65-7.56-4-1.35-8.18,1.47-11.5,3.37-3.23,1.84-6.37,3.82-9.42,5.96-6.18,4.34-11.95,9.28-17.2,14.7-10.56,10.89-19.09,23.8-24.82,37.85-.7,1.72-1.36,3.46-1.98,5.22-.54,1.53,2.35,1.41,2.75,.27h0Z"></path><path class="cls-3" d="M398.64,23.21c-2.88,17.74-5.75,35.49-8.63,53.23l2.79-.75c-2.89-3.24-6.32-5.87-10.18-7.84-.7-.36-2.31,.08-2.61,.87-4.87,13.09-11.41,25.52-19.47,36.92-8.01,11.33-17.49,22.24-28.64,30.58-11.11,8.3-26.36,14.21-40.07,8.93-2.87-1.1-5.63-2.82-7.31-5.46-1.92-3.03-1.85-6.75-2.5-10.17-.49-2.62-1.63-5.46-3.88-7.05-2.66-1.88-6.06-1.33-8.83,.02-3.47,1.68-6.63,4.27-9.69,6.59-3.28,2.49-6.46,5.11-9.54,7.85-6,5.35-11.58,11.15-16.71,17.34-.44,.53,.38,.75,.76,.76,.65,.02,1.49-.25,1.92-.77,9.32-11.25,20.24-21.38,32.4-29.5,1.4-.94,3.11-2.15,4.89-1.98,1.45,.13,2.66,1.07,3.54,2.17,2.1,2.61,2.34,6.05,2.8,9.24,.45,3.19,1.34,6.18,3.67,8.5,2.16,2.15,5.03,3.54,7.92,4.4,13.66,4.1,28.41-.57,39.85-8.31,11.43-7.73,21.1-18.39,29.34-29.37,9.4-12.53,16.97-26.41,22.43-41.09-.87,.29-1.74,.58-2.61,.87,3.73,1.91,7.02,4.48,9.81,7.6,.53,.59,2.66,.05,2.79-.75,2.88-17.74,5.75-35.49,8.63-53.23,.17-1.02-2.74-.52-2.89,.4h0Z"></path></g><g id="circle"><g><path class="cls-2" d="M283.29,270.86c-.72-22.31-.65-44.62,.22-66.85,9.79-3.84,19.27-8.51,28.34-13.97,.42,23.1,1.28,46.2,2.57,69.3"></path><path class="cls-3" d="M284.74,270.48c-.56-17.31-.64-34.63-.23-51.94,.11-4.9,.27-9.8,.46-14.69l-.87,.82c9.93-3.91,19.52-8.65,28.67-14.14-.79-.11-1.58-.21-2.37-.32,.33,18.03,.92,36.05,1.78,54.07,.24,5.15,.51,10.3,.8,15.45,.06,1.01,2.96,.4,2.9-.78-1-17.85-1.74-35.72-2.22-53.59-.14-5.16-.26-10.32-.35-15.48-.02-1.12-1.79-.66-2.37-.32-8.94,5.37-18.31,9.98-28.02,13.79-.29,.11-.85,.44-.87,.82-.68,17.45-.88,34.91-.58,52.37,.08,4.9,.2,9.81,.36,14.71,.03,1,2.94,.41,2.9-.78h0Z"></path></g><g><path class="cls-2" d="M329.22,253.04c-.97-30.04-.87-60.07,.3-90,13.18-5.16,25.95-11.46,38.16-18.8,.57,31.09,1.73,62.2,3.46,93.3"></path><path class="cls-3" d="M330.69,252.94c-.75-23.37-.86-46.77-.32-70.15,.15-6.62,.36-13.24,.62-19.86l-.82,1c13.22-5.2,25.98-11.49,38.16-18.8-.71-.27-1.42-.54-2.13-.8,.45,24.29,1.25,48.57,2.4,72.84,.33,6.82,.68,13.64,1.06,20.45,.09,1.57,3.02,1.16,2.94-.2-1.35-24.26-2.36-48.55-3-72.84-.18-6.82-.33-13.64-.46-20.45-.02-1.03-1.37-1.25-2.13-.8-12.18,7.31-24.94,13.61-38.16,18.8-.37,.15-.8,.58-.82,1-.91,23.35-1.18,46.73-.79,70.09,.11,6.64,.27,13.28,.49,19.91,.05,1.57,2.99,1.17,2.94-.2h0Z"></path></g><g><path class="cls-2" d="M386.65,231.14c-1.28-39.44-1.14-78.86,.4-118.16,17.3-6.78,34.06-15.04,50.09-24.69,.75,40.82,2.27,81.66,4.55,122.48"></path><path class="cls-3" d="M388.1,230.76c-.99-30.75-1.13-61.52-.41-92.28,.2-8.63,.47-17.26,.81-25.88l-.94,.74c17.56-6.9,34.52-15.26,50.7-24.98-.85,.11-1.71,.22-2.56,.33,.59,31.88,1.64,63.75,3.16,95.6,.43,8.96,.89,17.93,1.39,26.89,.03,.55,2.94,.05,2.9-.78-1.78-31.84-3.1-63.71-3.94-95.6-.24-8.96-.44-17.92-.6-26.88-.01-.69-2.31,.18-2.56,.33-15.79,9.48-32.34,17.66-49.49,24.39-.31,.12-.93,.33-.94,.74-1.2,30.72-1.55,61.47-1.03,92.21,.14,8.65,.36,17.31,.64,25.96,.02,.53,2.92,.07,2.9-.78h0Z"></path></g><g id="circle-2"><path class="cls-2" d="M260.81,284.05V77.35c-112.44,0-203.59,91.15-203.59,203.59s91.15,203.59,203.59,203.59c84.01,0,156.13-50.89,187.23-123.52l-187.23-76.96Z"></path><path class="cls-1" d="M258.82,291.41c7.79,22.55,15.59,45.1,23.84,67.48,8.24,22.37,16.94,44.57,26.53,66.4,4.73,10.78,9.68,21.46,14.9,32.01,2,4.04,4.46,8.39,9.18,9.52,5.31,1.27,10.6-1.72,15.15-4.08,19-9.88,36.32-22.94,51.04-38.5,8.18-8.65,15.51-18.06,22.86-27.41,3.68-4.68,7.33-9.38,10.79-14.22,2.68-3.76,6.32-7.74,5.82-12.67-.39-3.89-3.02-6.78-6.51-8.26-1.99-.84-3.97-1.69-5.95-2.54-4.93-2.12-9.86-4.27-14.78-6.43-12.61-5.53-25.2-11.12-37.79-16.71-14.22-6.32-28.44-12.66-42.66-18.99-13.07-5.81-26.14-11.62-39.22-17.39-9.19-4.04-18.37-8.1-27.63-11.98-1.36-.57-2.73-1.14-4.09-1.69-1.25-.5-3.38,1.29-1.67,1.98,7.76,3.12,15.42,6.52,23.08,9.87,12.08,5.29,24.13,10.63,36.18,15.99,13.89,6.17,27.78,12.36,41.66,18.54,13.13,5.84,26.26,11.68,39.4,17.48,9.89,4.36,19.78,8.73,29.73,12.96,2.86,1.22,5.59,2.4,6.79,5.54,.67,1.76,.77,3.73,.19,5.53-.82,2.51-2.8,4.78-4.3,6.91-6.67,9.47-13.97,18.54-21.27,27.53-7.06,8.7-14.51,17.08-22.8,24.64-7.8,7.11-16.18,13.57-25.04,19.29-4.42,2.85-8.96,5.51-13.6,7.98-2.36,1.25-4.74,2.55-7.21,3.56s-5.2,1.71-7.73,.72c-4.42-1.72-6.43-7.33-8.34-11.24-2.61-5.34-5.15-10.71-7.63-16.12-9.71-21.15-18.5-42.72-26.76-64.48-8.27-21.78-16.01-43.76-23.65-65.78-1.88-5.41-3.75-10.82-5.62-16.23-.46-1.34-3.35-.54-2.9,.78h0Z"></path><path class="cls-1" d="M270.58,295.3c-1.06,1.36-2.12,2.72-3.18,4.07-.13,.16-.17,.37-.01,.53,.17,.17,.55,.21,.77,.2,.38-.01,.78-.08,1.13-.24,.29-.12,.59-.27,.79-.52,1.06-1.36,2.12-2.72,3.18-4.07,.13-.16,.17-.37,.01-.53-.17-.17-.55-.21-.77-.2-.38,.01-.78,.08-1.13,.24-.29,.12-.59,.27-.79,.52h0Z"></path><path class="cls-1" d="M277.21,297.39c-1.4,4.26-4.33,8.02-8.26,10.22-.34,.19-.91,.66-.31,.91s1.51-.06,2.04-.33,1.06-.53,1.59-.8c.35-.18,.9-.66,.31-.91s-1.51,.06-2.04,.33-1.06,.53-1.59,.8l1.72,.58c4.39-2.46,7.83-6.45,9.41-11.25,.18-.56-.93-.47-1.2-.42-.48,.07-1.49,.31-1.68,.87h0Z"></path><path class="cls-1" d="M285.63,300.77c.67,4.22-3.4,7.74-6.05,10.45-3.08,3.14-6.35,6.09-9.79,8.84-.53,.42,.47,.5,.69,.48,.67-.04,1.41-.27,1.94-.69,3.62-2.9,7.06-6.01,10.29-9.35,2.67-2.76,6.5-6.25,5.83-10.5-.09-.59-3.02,.03-2.9,.78h0Z"></path><path class="cls-1" d="M295.05,305.3c.68,5.55-3.94,9.8-7.76,13.1-4.99,4.31-9.98,8.62-14.98,12.93-.52,.44,.45,.54,.7,.53,.66-.03,1.43-.27,1.94-.71,5.2-4.49,10.43-8.94,15.6-13.47,3.79-3.33,8.08-7.67,7.4-13.16-.08-.62-3-.03-2.9,.78h0Z"></path><path class="cls-1" d="M304.8,311.98c-.02,2.97-1.47,5.59-3.19,7.93-1.8,2.46-3.85,4.76-5.95,6.97-4.12,4.32-8.67,8.21-13.58,11.61-.48,.33-.34,.55,.17,.63,.6,.1,1.55-.21,2.05-.55,5.17-3.57,9.97-7.65,14.28-12.22,2.08-2.2,4.09-4.5,5.89-6.94,1.78-2.43,3.21-5.12,3.23-8.19,0-.45-2.89-.06-2.9,.78h0Z"></path><path class="cls-1" d="M318.07,316.61c-8.04,13.56-20.22,23.9-32.11,33.96-1.5,1.27,.8,2.33,1.93,1.37,12.25-10.37,24.67-21.01,32.95-34.97,.38-.64-.34-1.17-.89-1.26-.74-.12-1.51,.26-1.88,.9h0Z"></path><path class="cls-1" d="M329.6,325.56c-7.79,16.79-24.47,26.35-37.76,38.25-.48,.43-.27,.93,.29,1.09,.66,.19,1.55-.1,2.05-.55,13.43-12.02,30.26-21.72,38.13-38.68,.61-1.31-2.29-1.03-2.71-.11h0Z"></path><path class="cls-1" d="M343.6,331.38c-1.77,7.81-7.69,14.01-12.92,19.75-5.71,6.27-11.79,12.21-18.21,17.75-3.6,3.1-7.3,6.08-11.09,8.94-1.57,1.18,.8,2.07,1.9,1.24,6.95-5.25,13.59-10.9,19.87-16.94,6.16-5.92,12.28-12.16,17.41-19.01,2.71-3.62,4.96-7.54,5.97-11.98,.31-1.35-2.65-.98-2.93,.25h0Z"></path><path class="cls-1" d="M357.6,338.21c-8.08,17.17-19.82,32.58-34.2,44.95-4.07,3.5-8.35,6.76-12.81,9.74-.43,.29-.82,.72-.27,1.09,.51,.33,1.6,.02,2.05-.28,16.14-10.8,29.96-24.97,40.26-41.43,2.91-4.65,5.52-9.48,7.86-14.44,.28-.6-.97-.61-1.24-.58-.63,.07-1.37,.36-1.65,.96h0Z"></path><path class="cls-1" d="M371.65,349.94c-3.32,9.31-9.3,17.37-15.95,24.57-7.2,7.78-15.1,14.96-23.05,21.97-4.84,4.27-9.77,8.44-14.78,12.51-1.52,1.24,.85,1.91,1.86,1.09,8.98-7.29,17.71-14.88,26.14-22.8,7.5-7.04,14.95-14.28,20.88-22.72,3.25-4.62,5.92-9.59,7.82-14.91,.24-.67-.9-.82-1.3-.79-.68,.06-1.38,.41-1.62,1.08h0Z"></path><path class="cls-1" d="M388.25,356.16c-11.82,20.08-27.33,37.94-45.58,52.42-5.16,4.09-10.52,7.91-16.08,11.44-.4,.25-.84,.63-.3,.97,.49,.3,1.61-.04,2.04-.31,19.92-12.63,37.48-28.89,51.52-47.85,3.98-5.38,7.67-10.96,11.06-16.73,.61-1.03-2.25-.65-2.67,.06h0Z"></path><path class="cls-1" d="M405.82,362.8c-9.8,23.03-26.32,43.03-47.01,57.1-5.86,3.98-12.03,7.47-18.46,10.43-.47,.21-1.14,.76-.73,1.32s1.45,.34,1.94,.12c23.23-10.68,43.17-28.15,56.93-49.69,3.88-6.07,7.24-12.45,10.07-19.08,.6-1.41-2.3-1.21-2.73-.19h0Z"></path><path class="cls-1" d="M415.92,375.49c-11.37,20.45-26.62,38.64-44.76,53.41-5.13,4.18-10.5,8.06-16.05,11.65-.48,.31-.76,.87-.22,1.26s1.57,.08,2.06-.24c19.89-12.87,37.25-29.54,50.95-48.86,3.89-5.49,7.47-11.19,10.74-17.07,.71-1.28-2.21-1.08-2.72-.15h0Z"></path><path class="cls-1" d="M255.26,289.48c-15.57,17.57-31.13,35.13-46.7,52.7-15.62,17.63-31.24,35.26-46.87,52.89-8.78,9.9-17.55,19.81-26.33,29.71-.46,.52,.39,.71,.75,.72,.66,.01,1.48-.25,1.92-.76,15.57-17.57,31.13-35.13,46.7-52.7,15.62-17.63,31.24-35.26,46.87-52.89,8.78-9.9,17.55-19.81,26.33-29.71,.46-.52-.39-.71-.75-.72-.66-.01-1.48,.25-1.92,.76h0Z"></path><path class="cls-1" d="M95.18,171.8c20.27,15,40.69,29.8,61.18,44.49,20.36,14.6,40.8,29.09,61.24,43.59,11.61,8.24,23.23,16.48,34.84,24.72,.72,.51,3.29-.64,2.71-1.05-20.62-14.63-41.25-29.26-61.87-43.91-20.42-14.51-40.81-29.07-61.09-43.78-11.47-8.32-22.91-16.69-34.31-25.12-.71-.52-3.29,.62-2.71,1.05h0Z"></path><path class="cls-3" d="M234.02,286.36c-3.11,.15-5.65,2.73-5.85,5.83-.21,3.31,2.39,5.59,5.66,5.15,3.08-.41,6.48-3.17,6.11-6.55-.47-4.3-6.59-6.25-10.2-6.12-2.36,.08-4.77,.96-6.32,2.81-1.34,1.61-2,3.77-1.17,5.77,.31,.75,1.47,.57,2.05,.31,4.48-1.99,5.69-7.51,3.68-11.73-2.44-5.12-9.14-7.51-14.1-4.57-2.27,1.35-4.08,3.79-3.96,6.53,.11,2.41,1.89,4.43,4.11,5.25,2.34,.87,5.13,.29,6.87-1.54,1.59-1.67,1.97-4.2,1.4-6.37-1.4-5.34-8.31-7.32-13.18-7.27-2.34,.02-4.87,.52-6.78,1.95-1.72,1.29-2.63,3.53-1.57,5.54,2.11,3.99,9.25,3.39,12.43,1.3,.9-.59,1.74-1.46,1.72-2.61-.03-1.45-1.38-2.69-2.38-3.58-2.19-1.95-4.87-3.26-7.79-3.63-5.92-.75-13.15,3.8-12.31,10.42,.7,5.57,8.12,7.94,12.36,4.76,.4-.3,.86-.93,.21-1.28-4.28-2.32-8.53,1.69-10.25,5.38s-2.58,8.88-.23,12.39c2.82,4.23,8.63,3.28,12.51,1.31,2.88-1.46,8.99-5.11,5.67-8.96-2.81-3.26-7.88-2.74-11.25-.85-3.88,2.18-6.69,6.39-6.28,10.95,.39,4.28,3.68,8.18,7.97,8.91,4.06,.7,8.81-1.25,10.82-4.94,.92-1.69,1.45-4.22-.05-5.76-1.61-1.66-4.34-1.06-6.17-.18-2.06,.98-4.39,2.53-5.58,4.52-1.07,1.79-.93,3.96,.03,5.76,2.32,4.39,7.78,4.68,11.93,2.96,4.69-1.95,7.94-6.55,10.37-10.83,1.03-1.82,1.96-3.98,1.71-6.12s-1.91-3.52-3.94-3.7c-1.93-.17-4.22,.63-5.27,2.34-1.01,1.65-.64,3.87,.77,5.17,1.71,1.57,4.33,1.3,6.28,.35,2.1-1.03,3.68-2.93,4.51-5.1,1.7-4.42,.14-9.29-3.81-11.9-1.5-.99-4.72-2.51-6.43-1.3-1.52,1.08-1.34,3.19-.4,4.56,2.32,3.4,7.58,2.72,9.36-.84,1.99-3.97-.45-8.09-4-10.07-3.52-1.96-8.26-3.13-12.03-1.17-1.51,.79-2.59,2.09-2.24,3.86,.23,1.14,2.45,.33,2.81-.3,2.04-3.61,3.2-7.88,2.3-12.01-.77-3.55-3.27-6.69-6.63-8.11s-7.09-.98-9.93,1.24c-2.6,2.04-4.24,5.47-3.08,8.72,.36,1.02,2.08,.42,2.63-.07,2.92-2.61,4.72-6.47,4.33-10.42-.38-3.79-3.15-6.98-6.73-8.17-3.54-1.18-7.56-.05-9.94,2.83-2.07,2.5-2.86,6.4-.58,9.05,2.03,2.35,5.64,2.91,8.49,1.99,3.35-1.09,5.21-4.28,4.34-7.74-1-3.97-4.63-6.27-8.41-7.13-3.73-.85-7.95-1.03-11.67-.07-2.98,.77-6.39,2.69-6.64,6.13-.3,4.24,3.96,6.85,7.73,6.89,4.1,.04,8.58-1.95,11.06-5.26,1.11-1.49,1.81-3.38,1.32-5.24-.54-2.03-2.34-3.5-3.98-4.67-6.6-4.71-16.26-4.75-22.24,1.02-2.73,2.64-4.55,6.35-4.49,10.19s2.02,7.09,5,9.3c2.99,2.22,7,3.02,10.57,1.86,3.3-1.08,7.01-4.43,5.83-8.27-1.01-3.28-4.98-4.53-8.07-3.99-3.92,.69-6.65,3.93-7.89,7.55-2.29,6.68,.53,15.76,7.89,17.77,3.28,.89,6.98,.31,9.88-1.45,2.5-1.51,5.68-5.37,3.88-8.43s-7.14-2.32-9.99-1.34c-3.49,1.19-6.49,3.47-8.68,6.42s-3.45,6.57-3.31,10.23c.15,3.93,1.96,8.01,5.92,9.34s8.14-.21,11.4-2.26c2.51-1.57,6.87-5.35,3.54-8.33-2.63-2.35-6.86-1.64-9.69-.12-3.25,1.73-5.7,4.75-6.75,8.28-2.26,7.61,3.73,14.88,11.25,15.83,7.48,.95,15.37-5.21,15.65-12.9,.17-4.75-4.73-4.18-7.93-3.08-4.04,1.4-8.04,3.46-10.73,6.88-2.36,3-3.59,7.31-2.23,11,1.14,3.09,3.86,5.1,7.05,5.69,3.29,.61,6.82-.03,9.78-1.54,2.91-1.49,6.62-4.51,6.45-8.14-.2-4.33-5.87-4.02-8.83-3.36-3.71,.83-7.17,2.82-9.85,5.5-2.64,2.64-4.59,6.03-5.33,9.71-.77,3.78-.35,8.37,2.85,10.94,5.73,4.59,15.79-.01,18.96-5.74,.8-1.44,1.36-3.29,.57-4.86-.89-1.77-2.95-2.26-4.74-2.54-3.66-.57-7.41,0-10.83,1.37-6.81,2.72-12.69,9.18-13.01,16.76-.17,4.01,1.4,8,5.22,9.75,3.54,1.63,7.72,1.2,11.08-.66,3.59-1.98,6.37-5.53,7.62-9.42,1.26-3.93-.18-7.64-3.45-10.03-5.81-4.23-17.11-3.38-19.6,4.37-1.03,3.21,.11,7.17,3.49,8.37,2.85,1.01,6.76,.05,8.43-2.59,2-3.17-.58-6.4-3.22-8.09-3.3-2.11-7.51-3.32-11.33-3.97-3.91-.67-8.16-.48-11.51,1.87-2.94,2.07-4.47,5.42-4.55,8.97-.14,6.12,4.33,17.3,12.25,13.84,3.09-1.35,5.31-4.71,5.2-8.09-.12-3.91-3.11-7.08-6.13-9.21-6.52-4.6-17.3-8.33-23.64-1.41-2.59,2.82-2.94,6.73-.75,9.9,2.24,3.25,6.24,4.67,10.07,4.17,8.02-1.04,16.03-9.72,13.35-18.11-1.15-3.6-4.07-6.25-7.24-8.11-1.65-.97-3.41-1.74-5.2-2.4-1.94-.72-4.02-1.33-6.11-1.04-3.59,.49-5.85,3.46-5.12,7.03,.74,3.66,4.1,5.52,7.62,5.75,4.13,.27,8.49-1.21,11.93-3.44,3.06-1.98,5.85-5.04,6.2-8.82,.36-3.94-1.9-7.5-4.91-9.84-3.54-2.76-8.09-3.79-12.38-4.76-.67-.15-1.89,.06-2.23,.78-3.25,7,3.05,14.91,10.4,14.67,8.43-.28,14.82-8.74,12.48-16.87-2.21-7.69-12.86-15.31-20.09-8.86-6.37,5.68-1.66,15.08,5.27,17.54,7.72,2.74,15.47-3.36,17.56-10.6,2.36-8.17-2.77-16.19-9.62-20.33-3.81-2.31-8.52-3.81-13-3.1-3.97,.63-7.68,3.18-8.64,7.26-.89,3.8,1.64,7.02,5.26,7.92s7.78,0,11.11-1.72c3.63-1.88,7.26-5.02,7.54-9.38,.29-4.38-2.54-8.26-6.03-10.61-1.93-1.29-4.11-2.19-6.3-2.94s-4.65-1.59-7.03-1.94c-4.12-.6-8.49,1.62-8.55,6.2-.05,4.19,3.86,6.91,7.67,7.42,4.21,.56,8.76-1.23,11.41-4.55,2.6-3.27,3.15-8,1.27-11.75-1.99-3.97-6.1-6.34-9.91-8.28-4.06-2.07-9.04-3.34-13-.33-1.47,1.11-2.65,2.75-2.64,4.66s1.09,3.35,2.56,4.35c3.31,2.23,7.8,1.83,11.3,.29s6.53-4.54,7.91-8.19c2.9-7.64-2.72-16.55-10.73-17.67-3.83-.53-8.55,.92-9.66,5.04s.79,8.33,3.54,11.11c2.82,2.86,6.77,4.45,10.8,4.12,4.05-.34,7.82-2.58,10.27-5.79s3.51-7.4,2.23-11.24c-1.29-3.89-4.9-5.9-8.9-5.37-3.66,.48-7.01,2.82-7.96,6.5s.68,7.96,3.81,10.23c3.5,2.53,8.36,2.61,12.27,1.08,3.57-1.39,6.36-4.33,7.75-7.87,1.33-3.36,1.42-7.18-.1-10.49-.4-.88-1.75-.53-2.37-.14-4.15,2.59-6.87,7.51-6.23,12.46,.31,2.36,1.97,4.03,4.43,3.85s4.48-1.68,5.86-3.53c2.8-3.76,3.18-9.38,2.13-13.8-1.15-4.84-4.25-9.02-8.6-11.45-4.84-2.7-10.8-3.27-16.05-1.48l1.68,.68c0-2.88-.01-6.4-2.38-8.45-1.9-1.64-4.87-2.02-7.04-.67-2.51,1.56-2.67,5.09-2.29,7.73,.42,2.94,1.87,5.7,4.03,7.73,.75,.71,2.16,.23,2.7-.51,2.46-3.31,3.28-7.78,2.01-11.73-.59-1.81-1.64-3.65-3.41-4.53-1.72-.85-3.8-.66-5.53,.05-3.96,1.62-6.04,6.44-6.17,10.52-.11,3.54,3.31,4.61,6.25,3.83,3.24-.87,5.38-3.67,4.41-7.07-1.01-3.59-4.55-6.12-8.03-6.98-6.02-1.48-14.04,.96-16.8,6.9-3.73,8.03,4.08,15.72,11.1,18.18,3.81,1.33,8.41,1.74,12.28,.44,3.38-1.14,6.65-4.21,4.48-7.95-1.09-1.88-3.01-3.17-4.77-4.35-1.92-1.28-3.94-2.41-6.04-3.38-2.12-.98-4.31-1.8-6.55-2.45-2.13-.62-4.51-1.34-6.75-1.04-4.08,.56-6.26,4.4-6.5,8.21-.24,3.7,1.05,7.6,3.74,10.21,5.24,5.07,15.45,3.81,18.32-3.27,1.56-3.84,.45-8.15-1.39-11.69-2.07-3.97-5.15-7.42-8.45-10.41-1.64-1.48-3.37-2.86-5.18-4.12-1.77-1.23-3.65-2.52-5.69-3.25s-4.27-.65-5.99,.67c-1.63,1.26-2.3,3.49-2.63,5.45-.66,3.94,.73,8.2,4.83,9.5s7.51-1.23,8.69-4.96c2.49-7.82-3.71-17.02-12.25-16.09-3.64,.39-7.39,2.56-8.95,5.98-1.47,3.22-.58,7.02,2.02,9.39,2.69,2.46,6.63,2.84,9.73,.89,2.61-1.65,4.47-5,3.65-8.11-.93-3.51-4.82-4.97-8.12-4.94-3.86,.03-7.54,1.73-10.36,4.32-6.03,5.55-6.83,14.77-1.72,21.22,2.5,3.16,6.72,5.85,10.87,4.56,3.68-1.14,5.72-5.24,2.52-8.13-1.46-1.32-3.3-2.06-5.09-2.79-2.28-.93-4.59-1.81-7.03-2.23-3.91-.67-8.16-.04-11.29,2.55-6.63,5.48-1.81,15.92,4.47,19.43,3.15,1.76,6.83,2,10.15,.57,.41-.18,1.19-.78,.74-1.3-2.51-2.86-5.64-5.16-9.15-6.63-3.12-1.31-7.03-2.43-10.18-.58-1.53,.9-2.34,2.39-2.79,4.06-.55,2.09-.87,4.28-1.03,6.43-.31,4.09,.14,8.32,2.04,12.01s4.79,6.33,8.62,7.56c.7,.22,2.53-.24,2.32-1.25-.51-2.4-2.71-3.78-5.01-4.14-2.62-.41-5.18,.49-7.18,2.18-2.34,1.96-3.81,4.8-4.92,7.6-1.17,2.95-1.9,6.07-1.78,9.25,.2,5.65,3.54,10.65,9.15,12.13,2.48,.65,5.19,.47,7.49-.69,1.09-.55,2.31-1.34,2.78-2.53,.5-1.28-.17-2.65-1.1-3.54-4.05-3.87-11.02-1.01-12.95,3.65-2.18,5.25,.12,11.94,4.88,14.96,4.44,2.83,12.3,1.95,14.44-3.46,.98-2.47,.04-5.18-2.76-5.7-2.64-.49-5.37,.92-6.81,3.11-.9,1.37-1.33,3.02-1.7,4.59-.5,2.1-1,4.22-1.19,6.37-.3,3.34,.22,6.84,2.41,9.5,1.9,2.32,4.79,3.37,7.74,2.78,2.67-.54,5.31-2.35,5.76-5.2,.2-1.27-2.74-.81-2.91,.3-.26,1.67-1.51,2.95-3.2,3.2-1.86,.27-3.58-.9-4.7-2.27-3.23-3.96-2.27-9.34-1.23-13.92,.46-2.02,.85-4.66,2.53-6.09s3.61-.1,3.56,1.92c-.12,4.76-6.08,5.44-9.33,3.54-3.64-2.12-5.69-6.71-5.32-10.84,.31-3.54,3.28-8.01,7.32-5.83,.8,.43,1.62,1.22,1.8,2.15,.22,1.17-.9,1.84-1.85,2.2-1.54,.58-3.29,.34-4.8-.22-3.83-1.42-6.24-4.85-6.88-8.8-.83-5.12,.97-10.89,3.83-15.13,1.11-1.65,2.82-3.51,4.98-3.47,1.92,.04,3.69,1.27,4.09,3.18l2.32-1.25c-8.75-2.8-10.36-13.31-9.13-21.15,.27-1.75,.44-4.67,1.97-5.85,1.36-1.04,3.63-.24,5.07,.24,3.94,1.31,7.42,3.73,10.15,6.83l.74-1.3c-5.4,2.34-11.07-3.24-12.8-7.92-1.11-3-1.38-6.9,1.01-9.36,2.23-2.3,5.62-2.61,8.61-2.01,1.65,.33,3.24,.88,4.81,1.48,1.62,.63,3.31,1.26,4.79,2.21,1.12,.72,2.26,1.78,2.34,3.2,.1,1.73-1.4,3.02-3.05,2.87-3.15-.28-5.92-3.2-7.48-5.74-1.65-2.71-2.43-6.04-2.04-9.2,.68-5.56,5.25-11.33,11.13-11.76,2.55-.19,5.54,.84,6.48,3.45,.83,2.32-.25,5.15-2.23,6.54-2.19,1.53-4.88,.02-6.34-1.83-1.81-2.3-2.16-5.43-.61-7.95,1.39-2.26,4.07-3.72,6.73-3.46,3.04,.29,5.67,2.41,7.23,4.94,1.74,2.82,2.15,6.5,1.13,9.64-.4,1.23-1.23,2.93-2.67,3.12s-2.91-.85-3.76-1.88c-2.07-2.53-1.74-6.84-.28-9.59,.41-.77,.85-1.32,1.78-1.23,.85,.08,1.69,.52,2.43,.92,1.61,.86,3.15,1.88,4.63,2.95,5.39,3.88,10.86,9.19,13.31,15.48,1.1,2.83,1.67,6.15,.38,9.02-1.16,2.58-3.62,4.16-6.44,4.26-6.18,.21-10.14-6.13-9.79-11.79,.17-2.69,1.32-6.52,4.66-6.07,3.61,.48,7.27,1.88,10.53,3.44,2.99,1.43,6.32,3.19,8.64,5.6,1.07,1.11,2,2.61,1.52,4.21-.42,1.39-1.77,2.17-3.08,2.57-2.93,.89-6.37,.41-9.23-.53-3.23-1.06-6.23-3.01-8.37-5.67-3.61-4.49-4.03-10.99,1.12-14.45,4.12-2.77,10.06-2.62,13.72,.88,1.75,1.67,3.73,5.21,1.61,7.37-1.37,1.4-3.78,1.05-4.16-1.03-.29-1.62,.41-3.67,.95-5.19,.54-1.52,1.39-3.11,2.81-3.96,3.45-2.06,5.52,2.72,5.93,5.39,.48,3.16-.38,6.37-2.28,8.92l2.7-.51c-3.03-2.86-5-7.86-3.47-11.98,.76-2.06,2.84-1.19,3.98,.12,1.61,1.86,1.59,4.71,1.59,7.02,0,.82,1.09,.89,1.68,.68,7.63-2.6,16.52,1.1,20.02,8.4,1.72,3.59,2.22,7.73,1.36,11.62-.41,1.87-1.08,3.88-2.42,5.3-1.25,1.32-3.06,2.21-3.96,0-.85-2.06-.34-4.82,.49-6.81,.9-2.14,2.39-3.94,4.37-5.17-.79-.05-1.58-.09-2.37-.14,2.42,5.3,.64,12.48-4.54,15.51-6.04,3.53-14.28-.98-13.62-8.21,.26-2.86,2.14-5.37,5.09-5.73,3.36-.41,5.74,2.19,6.44,5.27,1.39,6.12-3.5,13.43-10.03,13.54s-12.23-6.45-11.44-12.75c.47-3.8,4.02-4.58,7.22-3.54,2.98,.97,5.47,3.31,6.91,6.06,3.06,5.83,.75,13.18-5.25,16.06-2.68,1.28-6.18,1.47-8.56-.57-2.56-2.2-1.45-6.05,1.7-6.98,1.9-.56,4.1,.2,5.84,.97s3.36,1.67,4.94,2.65c2.93,1.81,5.69,4.23,6.56,7.7s-.09,7.08-2.64,9.43c-2.48,2.29-6.22,2.93-9.24,1.34-2.79-1.48-4.58-5-2.69-7.91,1.1-1.69,2.97-1.45,4.71-1.03,1.84,.45,3.66,1.02,5.45,1.63,3.46,1.19,6.88,2.89,9.1,5.9,2.11,2.86,2.83,6.65,.9,9.8-1.66,2.69-4.81,4.55-7.82,5.33-2.6,.67-5.94,.67-7.91-1.44-2.16-2.32-1.55-5.87,.5-8.05,2.59-2.77,6.74-2.38,10.05-1.34,6.23,1.97,11.89,6.99,13.7,13.39,1.63,5.78-.62,12.88-6.06,15.89s-12.04-1.09-13.64-6.7c-.82-2.9-.07-6.28,2.43-8.15,3.02-2.26,7.47,.07,9.93,2.19,5.03,4.33,7.04,12.06,2.59,17.52-1.91,2.34-4.8,4.05-7.9,3.75-2.87-.28-5.33-2.33-6.73-4.75s-1.78-5.35-.6-7.88l-2.23,.78c6.32,1.42,14.74,3.65,16.03,11.18,1.11,6.46-5.77,10.95-11.3,11.93-2.93,.52-6.49,.02-7.99-2.88-.91-1.76-1.25-5.52,1.33-6.08,1.51-.33,3.32,.44,4.71,.95s2.73,1.12,4.03,1.83c2.57,1.41,5.03,3.31,6.48,5.91,3.37,6.06-.69,13.82-6.59,16.52-2.95,1.35-6.29,1.17-8.85-.93-2.3-1.9-3.62-5.06-2.43-7.94s4.27-4.53,7.29-4.56c3.61-.04,7.13,1.53,10.24,3.24,4.85,2.66,11.05,8.44,6.8,14.28-.61,.83-1.5,1.72-2.55,1.93-1.5,.29-2.88-.9-3.78-1.95-1.89-2.2-3.08-5.03-3.62-7.86-1.05-5.58,1.25-11.78,7.64-12.12,3.27-.17,6.55,.83,9.61,1.85,2.61,.88,5.67,2.1,7.24,4.51,1.22,1.88,.79,4.82-1.71,5.28-2.69,.49-4.51-2.02-4.71-4.44-.57-7.19,8.2-8.86,13.29-6.19,2.44,1.28,4.48,3.49,4.75,6.33,.32,3.44-1.88,7.11-4.26,9.44-2.23,2.18-5.21,3.43-8.32,2.69-3.08-.74-5.14-3.14-5.76-6.2-1.21-5.94,2.22-12.12,6.93-15.55,2.17-1.58,4.67-2.73,7.32-3.21,1.33-.24,2.69-.31,4.03-.2,1.44,.12,3.48,.3,4.29,1.68,1.57,2.68-1.74,5.96-3.69,7.35-2.18,1.54-5.02,2.77-7.75,2.3-6.88-1.18-6.08-10.49-3.76-15.15,2.44-4.9,7.61-9.35,13.33-9.46,1.39-.03,2.92,.4,3.36,1.88,.5,1.68-.71,3.5-1.81,4.66-1.68,1.78-3.99,2.96-6.4,3.35-2.24,.36-4.61,.03-6.51-1.27-2.44-1.67-3.44-4.72-3.11-7.58,.38-3.34,2.28-6.21,4.93-8.21,1.29-.96,2.7-1.73,4.17-2.37,1.32-.57,2.79-1.24,4.24-1.4,3.72-.41,1.84,5.36,.92,7.12-1.33,2.55-3.58,4.73-6.34,5.65-5.61,1.88-11.9-2.37-13.51-7.77-1.55-5.17,1.59-12.61,7.37-13.62,2.29-.4,5.55,1.22,4.1,3.95-.7,1.32-2.19,2.28-3.43,3.04-1.37,.84-2.91,1.51-4.52,1.74-7.29,1.05-8.86-8.08-7.18-13.33,1.66-5.18,6.64-10.2,12.37-10.22,1.26,0,2.77,.36,3.34,1.62,.59,1.34-.15,3.06-.93,4.17-1.39,1.98-3.82,3.01-6.2,3.01-6.06,0-9.62-6.19-9.73-11.65-.06-2.85,.69-5.88,2.46-8.15,1.75-2.26,4.51-3.19,6.97-1.38,2.66,1.95,1.81,5.5-.63,7.22-2.34,1.64-5.42,1.13-7.78-.19-5.62-3.14-7.13-10.04-3.88-15.46,3.39-5.66,10.01-7.22,15.98-4.92,2.68,1.04,6.84,3.33,7.25,6.5,.43,3.36-3.11,5.98-5.92,6.9-3.1,1.01-6.9,.27-8.19-3.09-1.04-2.72,.73-4.95,3.26-5.77,2.73-.88,5.83-.72,8.64-.32,3.1,.44,6.23,1.65,7.91,4.46,1.24,2.08,1.72,5.79-.83,7.15-1.9,1.01-4.54,0-5.78-1.6-1.63-2.11-1.05-5.19,.54-7.14,1.94-2.38,4.85-2.38,7.34-.82,5.7,3.57,4.69,11.39,.16,15.45l2.63-.07c-.92-2.6,.13-5.44,2.29-7.1,2.29-1.76,5.18-1.1,7.4,.45,5.79,4.03,5.13,11.93,2.02,17.41,.94-.1,1.88-.2,2.81-.3-.49-2.47,3.08-2.42,4.63-2.06,2.87,.67,6.13,1.95,7.7,4.63,1.03,1.75,1.4,5.5-.75,6.69-1.74,.96-4.3-2.44-3.07-3.99l-1.72,.6c5.6,.55,8.98,6.55,7.07,11.71-.73,1.96-3.61,5.85-5.74,3.16-1.16-1.46-.63-5.14,1.83-3.83,2.42,1.29,1.33,4.76,.42,6.62-1.22,2.49-2.93,4.98-4.76,7.05s-4.37,4.07-7.33,4.1c-2.57,.03-4.83-1.65-5.6-4.1-.92-2.91,.98-4.79,3.26-6.29,.86-.56,2.24-1.5,3.24-.78,1.1,.78,.95,2.43,.58,3.55-.71,2.16-2.7,3.85-4.93,4.27-2.4,.45-4.74-.69-6.31-2.47-3.56-4.03-2.84-10.07,1.25-13.44,1.8-1.48,3.93-2.31,6.2-1.51,1.84,.64,3.73,2.47,2.4,4.48-.82,1.23-2.44,2.15-3.69,2.88-1.34,.78-2.84,1.45-4.4,1.63-3.03,.34-5.28-1.8-5.88-4.64-.56-2.64-.03-5.73,.98-8.21,.76-1.89,2.94-5.9,5.46-4.53l.21-1.28c-2.61,1.95-6.41-.64-7.34-3.29-1.27-3.65,1.48-7.96,5.11-8.88,3.85-.98,8.93,1.5,10.97,4.84,1.24,2.02-1.68,2.63-3.11,2.72-1.42,.09-3.11-.12-4.24-1.06-1.07-.89-1.44-2.49-.73-3.72s2.37-1.67,3.73-1.81c3.61-.38,8.32,.85,10.75,3.65,1.14,1.31,1.69,3.08,1.5,4.81-.14,1.33-.84,3.3-2.44,3.39s-3.26-1.35-3.91-2.74c-.83-1.79-.28-3.9,1-5.33,3.32-3.72,9.03-.68,10.86,3.09,1.42,2.92,1.49,8.01-1.98,9.55l2.05,.31c-.64-1.54-.33-3.21,.74-4.49,1.28-1.54,3.29-1.69,5.14-1.29,2.95,.64,7.55,3.28,5.51,6.89-.53,.95-1.58,1.95-2.73,1.98s-2.17-.99-2.52-2.07c-.56-1.75,.11-5.2,2.39-5.31,1.52-.07,2.33-1.91,.34-1.82h0Z"></path><path class="cls-3" d="M133.57,296.72c.65,0,1.54-.1,2.05-.55,.36-.31,.47-.71-.19-.71s-1.54,.1-2.05,.55c-.36,.31-.47,.71,.19,.71h0Z"></path><path class="cls-3" d="M139.15,294.95c.64,0,1.53-.16,2.05-.55,.39-.29,.47-.53-.14-.53s-1.53,.16-2.05,.55c-.39,.29-.47,.53,.14,.53h0Z"></path><path class="cls-3" d="M115.3,250.18c-2.99-2.21-1.75-7.2-5.01-9.31-4.59-2.96-10.04,2.86-12.65,6.09-3.22,3.99-5.43,8.78-6.35,13.82-.82,4.49-.95,10.25,2.15,13.97,3.51,4.21,9.21,3.04,13.07,.02,2.03-1.59,4.12-3.72,5.29-6.04,.55-1.1,.84-2.37,.29-3.52s-1.61-1.66-2.67-2.13c-4.64-2.04-10.27-2.24-14.89-.05-4.16,1.97-7.11,6.05-7.38,10.69-.29,4.84,2.59,9.02,7.4,9.97,4.22,.83,9.38-.98,10.96-5.26,.19-.52-.04-1-.56-1.19-6.02-2.24-13.83,2.19-16.25,7.89-2.64,6.22,3.32,11.48,9.24,11.57,4.1,.06,7.92-1.8,11.21-4.09-.73-.38-1.46-.77-2.19-1.15-4.12,3.97-5.54,10.45-3.53,15.81,.43,1.15,1.04,2.76,2.1,3.46s2.58,.61,3.71,.08c2.65-1.24,3.24-4.29,1.14-6.36-2.54-2.51-6.38-1.77-9.42-.75-2.9,.98-5.73,2.28-8.17,4.15-4.71,3.61-7.06,9.53-4.07,15.04,3.43,6.3,12.29,7.14,17.46,2.52,.38-.34,.7-.86,.35-1.34-4.23-6.01-14.17-5.13-18.52,.29-5.12,6.38-1.95,16.56,4.93,20.25,2.15,1.16,4.68,1.61,7.02,.73,2.1-.79,3.89-2.59,4.03-4.91,.05-.77-.74-.98-1.35-1-5.75-.13-10.86,4.3-12.44,9.68-1.61,5.49,.97,10.86,6.19,13.13,4.78,2.08,10.99,1.37,14.79-2.34,2.04-1.99,3.78-5.94,.22-7.41-2.78-1.15-6.43-.28-9.01,.99-5.5,2.71-9.48,8.9-8.45,15.12,.94,5.73,6.12,9.88,11.58,11.02,4.62,.97,14.65-1.01,12.49-7.75-.83-2.6-3.31-4.62-6.05-4.76-3.22-.17-6.14,1.83-7.78,4.48-1.95,3.15-1.94,6.9-.89,10.36,.57,1.88,1.41,3.68,2.32,5.42,.81,1.55,1.67,3.08,2.98,4.28,2.47,2.26,6.09,2.24,8.95,.73,3.1-1.64,4.85-4.59,5.64-7.92,.43-1.8,.57-3.64,.65-5.48,.06-1.24-1.77-1.15-2.44-.59-4.88,4.02-10.72,9.25-9.27,16.28,.54,2.65,2.17,5.11,4.7,6.2,3.16,1.36,6.72,.14,9.31-1.85,2.95-2.28,5.13-5.55,6.94-8.76,.98-1.74,1.84-3.56,2.56-5.43,.62-1.61,1.4-3.51,.77-5.23-1.11-3.01-5.21-3.1-7.59-1.74-2.74,1.58-4.64,4.96-4.96,8.06s1.48,5.99,4.71,6.45c3.25,.46,6.62-1.38,8.94-3.5,5.39-4.92,9.44-11.9,10.83-19.08,1.3-6.72-.9-14.93-8.2-17.09-6.31-1.87-12.9,3.01-13.43,9.49-.55,6.7,5.62,12.16,11.93,12.69,7.01,.59,14.19-3.55,17.26-9.87,1.42-2.93,1.96-6.57,.63-9.64-1.19-2.76-3.62-4.98-6.53-5.8-5.8-1.62-11.04,2.89-10.97,8.75,.08,6.35,5.76,9.98,11.71,9.74,6.92-.28,12.2-5.34,14.79-11.47,1.15-2.72,2.57-6.51,1.55-9.46s-4.49-3.59-7.14-2.29c-6.51,3.2-3.35,12.97,.03,17.43,1.79,2.36,4.39,4.04,7.44,3.85,3.52-.21,6.41-2.74,8.02-5.72,3.28-6.06,1.29-13.77-3.27-18.58-4.91-5.18-12.22-7.94-19.23-8.58-7.32-.67-14.86,1.27-20.05,6.69-2.21,2.3-3.74,5.13-4.44,8.24-.33,1.46,2.43,1.05,2.86,.09,2.26-5.11,4.36-10.99,2.24-16.5-1.82-4.74-6.3-7.42-11.34-6.68s-9.3,4.51-11.21,9.37c-1.76,4.48-3,11.55,1.03,15.16,4.07,3.66,10.09,2.54,14.32-.15,4.15-2.64,7.76-6.91,8.57-11.88,.86-5.3-2.69-9.27-7.66-10.52s-10.73-.35-15.27,2.22c-9,5.1-13.76,17.58-8.13,26.88,2.81,4.65,8.12,6.35,13.2,4.6,5.27-1.81,9.48-5.97,13.1-10.06,6.73-7.62,11.6-17.92,8.12-28.13-1.5-4.39-4.47-8.28-8.71-10.31s-10.13-1.79-12.76,2.43c-2.09,3.34-.53,7.73,2.26,10.15,3.32,2.88,8.24,2.23,11.38-.6,3.29-2.97,4.73-7.86,3.02-12.03-2.07-5.05-7.08-8.67-11.71-11.23-2.46-1.36-5.03-2.47-7.71-3.31-.9-.28-2.07,.12-2.3,1.1-1.17,5.13-1.93,11.09,1.36,15.63,2.59,3.57,7.13,5.37,11.33,3.64,3.68-1.51,5.65-5.31,6.4-9.02,.88-4.39,0-9.06-1.54-13.2-1.95-5.25-5.21-9.88-9.46-13.52-.72-.61-2.14-.12-2.5,.67-1.9,4.09-2.34,9.34,.48,13.14,2.43,3.27,6.94,4.92,10.84,3.51,3.79-1.37,6.05-5.26,6.09-9.19,.05-4.55-2.71-8.46-5.87-11.48-4.05-3.88-9.01-6.83-14.22-8.85-.84-.32-2.55,.26-2.28,1.39,1.52,6.4,6.4,11.8,12.6,14,4.76,1.69,13,1.17,14.52-4.83,.89-3.51-1.66-6.53-4.08-8.73-2.99-2.71-6.31-5.09-9.82-7.09-2.68-1.54-5.49-3.11-8.7-2.76-2.68,.29-5.25,2.36-3.97,5.27,1.15,2.62,4.01,4.2,6.71,4.68,3.01,.54,6.14-.13,8.93-1.28,2.91-1.2,5.88-3.17,7.68-5.8,.96-1.4,1.62-3.17,1-4.85-.55-1.49-1.92-2.42-3.26-3.14-3.56-1.9-7.36-3.39-11.25-4.46-3.3-.9-6.89-1.89-10.33-1.39-2.47,.36-5.61,1.5-6.29,4.21-.67,2.69,1.45,4.62,3.89,5.08,5.08,.96,14.37-2.73,12.69-9.16-.84-3.23-3.89-5.72-6.57-7.43-3.13-1.99-6.7-3.98-10.48-4.2-1.82-.11-3.57,.22-5.22,1.01-.56,.26-1.08,.94-.67,1.54s1.41,.5,1.98,.24c2.05-.94,4.32-2.07,5.36-4.2,.93-1.89,.62-4.41-1.35-5.48-2.19-1.2-4.87-.17-6.83,1.01-2.07,1.25-3.95,2.77-5.59,4.54-3.3,3.56-5.81,8.36-6.29,13.24-.48,4.89,2.51,8.73,7.07,10.25,5.95,1.98,12.01-.56,17.41-3,.56-.25,1.07-.95,.67-1.54s-1.4-.5-1.98-.24c-3.82,1.72-8.08,3.76-12.39,3.23-3.2-.4-6.57-2.29-7.56-5.53-1.15-3.73,.65-8.23,2.51-11.45s4.49-5.93,7.62-7.8c.85-.51,2.02-1.23,3.05-.96s1.29,1.32,1.21,2.22c-.21,2.18-2.47,3.14-4.21,3.94l1.3,1.78c2.76-1.31,5.8-.25,8.39,.99s5.19,2.8,7.22,4.82c1.67,1.66,3.47,4.26,2.16,6.65-1.04,1.91-3.77,3.02-5.83,3.37-1.58,.27-4,.28-4.61-1.56-.69-2.06,1.37-3.04,3.03-3.35,2.51-.46,5.15,.24,7.58,.82,3.07,.74,6.09,1.78,8.98,3.05,2.02,.88,6.24,2.2,5.86,5.06-.32,2.45-2.99,4.41-4.96,5.57-3.6,2.12-8.89,3.43-12.37,.37-1.26-1.11-2.76-3.85-.11-3.97,2.44-.1,4.67,1.35,6.69,2.53,2.67,1.56,5.22,3.33,7.61,5.3,2.1,1.73,4.79,3.85,5.29,6.7,.43,2.41-1.13,4.23-3.32,4.96-2.46,.82-5.02,.43-7.38-.51-5.33-2.14-9.37-6.95-10.69-12.52-.76,.46-1.52,.93-2.28,1.39,3.9,1.51,7.56,3.56,10.86,6.15,2.98,2.34,5.95,5.19,7.28,8.82,1.12,3.05,.9,6.9-1.47,9.34-2.41,2.49-6.16,1.55-8.41-.68-3.3-3.26-2.94-8.5-1.13-12.4-.83,.22-1.67,.45-2.5,.67,6.14,5.25,10.74,13.63,10.64,21.86-.04,3.15-.81,6.77-3.11,9.08-2.74,2.75-6.67,1.44-8.93-1.26-3.54-4.24-2.65-10.14-1.52-15.11l-2.3,1.1c4.59,1.45,8.87,3.67,12.64,6.67,3.22,2.56,6.56,6.18,6.22,10.6-.25,3.23-2.43,7.02-5.9,7.54-3.18,.48-5.76-2.55-6.39-5.39-.81-3.64,1.96-6.17,5.54-5.82,3.94,.39,7.2,3.19,9.21,6.45,4.52,7.33,3.07,16.37-1.11,23.47-2.31,3.93-5.4,7.45-8.72,10.56-3.01,2.82-7.29,6.2-11.72,5.39-4.42-.81-6.78-5.41-7.47-9.45-.73-4.32,.22-8.92,2.48-12.66,2.27-3.75,5.98-6.5,10.19-7.69,3.97-1.11,9.2-1.12,12.48,1.73,3.28,2.85,2.48,7.49,.57,10.88-2.05,3.63-6.01,7.12-10.24,7.72-1.95,.28-3.98-.24-5.53-1.46-1.92-1.51-2.33-3.91-2.25-6.22,.15-4.39,1.38-9.27,4.75-12.33,2.92-2.65,7.56-3.55,10.81-.97,3.5,2.79,4,7.79,3.15,11.88-.52,2.53-1.53,4.94-2.57,7.29l2.86,.09c1.15-5.08,5.09-9.12,9.81-11.11,5.73-2.41,12.46-1.8,18.23,.15,5.1,1.73,10.01,4.82,12.71,9.61,2.57,4.56,2.9,11.04-.71,15.16-1.72,1.97-4.21,2.84-6.54,1.37-2.03-1.29-3.39-3.57-4.28-5.75-1.03-2.52-2.03-5.75-1.22-8.45,.56-1.86,3.19-3.9,4.57-1.54,1.25,2.14,.04,5.45-.72,7.56-.91,2.52-2.2,4.91-4.02,6.89-3.3,3.6-8.84,5.36-13.33,2.85-3.76-2.1-5.05-7.1-2.88-10.82,2.63-4.52,8.35-1.95,10.38,1.76,2.74,5.01-.55,11.2-4.69,14.27-4.4,3.26-10.51,3.96-14.99,.48-4.09-3.18-5.52-9.01-2.1-13.22,1.52-1.87,3.75-3.02,6.19-2.61,2.51,.43,4.65,2.2,6.03,4.28,3.45,5.19,1.87,12.13-.45,17.43-1.18,2.68-2.68,5.21-4.48,7.52-1.68,2.15-3.6,4.4-6.08,5.65-2.19,1.11-5.02,1.17-5.86-1.65-.72-2.42,.49-5.26,2.04-7.1,.75-.88,1.75-1.71,2.98-1.46,1.41,.29,1.85,1.54,1.63,2.86-.25,1.51-1,3.04-1.62,4.42-.64,1.42-1.36,2.81-2.15,4.15-2.11,3.56-7.36,11.43-12.33,7.62-1.69-1.3-2.54-3.57-2.66-5.65-.15-2.56,.9-4.95,2.42-6.97,1.71-2.26,3.9-4.09,6.07-5.88l-2.44-.59c-.13,2.86-.38,5.83-1.75,8.4-1.1,2.05-3.29,3.91-5.76,3.66-2.77-.28-4.23-3.39-5.34-5.56-1.43-2.82-2.7-6-2.53-9.22,.13-2.37,1.16-4.86,3.14-6.28,1.93-1.39,4.16-.94,5.6,.9,1.53,1.96,1.43,4.35-.88,5.59-1.81,.97-3.92,1.21-5.94,.94-4.24-.59-8.34-3.47-9.96-7.49-1.81-4.49-.15-9.62,3.31-12.84,1.61-1.5,3.65-2.63,5.84-2.96,.96-.14,2.39-.3,3.27,.25,1.41,.88,.34,2.75-.44,3.68-2.44,2.89-6.72,3.53-10.2,2.43-4.51-1.42-7.28-5.56-6.46-10.29,.81-4.62,4.73-8.87,9.62-8.76-.45-.33-.9-.67-1.35-1-.09,1.46-1.14,2.72-2.62,2.95-1.78,.27-3.61-.73-4.97-1.78-2.38-1.82-4-4.54-4.68-7.44-1.3-5.57,1.52-11.61,7.64-12.18,2.9-.27,5.76,.76,7.47,3.19l.35-1.34c-3.39,3.03-8.69,2.82-11.68-.69-2.91-3.43-2.99-8.3-.18-11.81,2.68-3.36,7.32-5.57,11.47-6.42,1.2-.25,2.5-.28,3.56,.42,.83,.56,1.68,1.69,1.28,2.75-.92,2.41-2.46-1.98-2.68-2.75-1.34-4.62-.08-9.79,3.39-13.14,.46-.44,.24-1.1-.25-1.39-.6-.35-1.41-.14-1.94,.24-2.74,1.9-6.06,3.59-9.5,3.24-2.74-.28-5.51-2.14-6.43-4.8-1.07-3.1,.89-6.07,3.19-8s5.67-3.58,8.81-2.42l-.56-1.19c-1.01,2.75-3.85,3.93-6.64,3.55-3.35-.45-5.56-3.14-5.96-6.42-.43-3.47,1.13-7.24,3.94-9.33,3.21-2.39,7.61-2.66,11.37-1.61,1.82,.51,4.78,1.28,3.76,3.74-.8,1.96-2.7,3.81-4.3,5.13-1.54,1.27-3.49,2.47-5.57,2.2-1.88-.25-3.29-1.62-4.16-3.23-1.82-3.38-1.62-7.66-.97-11.32,.73-4.12,2.39-8.11,4.82-11.52,1.32-1.85,2.86-3.56,4.6-5.03,1.49-1.25,3.75-2.95,5.26-.86,1.92,2.64,1.32,6.41,4.19,8.52,1.08,.79,3.58-.71,2.22-1.71h0Z"></path></g><path class="cls-3" d="M266.34,281.37c23.57-9.77,47.23-19.34,70.98-28.69,23.67-9.33,47.41-18.44,71.24-27.35,13.45-5.03,26.93-9.99,40.42-14.89,1.02-.37-.01-1.19-.53-1.46-.89-.47-2.38-.94-3.39-.57-23.99,8.7-47.9,17.61-71.74,26.74-23.76,9.09-47.43,18.39-71.03,27.9-13.32,5.37-26.61,10.8-39.88,16.3-.99,.41-.02,1.17,.53,1.46,.85,.45,2.42,.98,3.39,.57h0Z"></path><path class="cls-3" d="M275.1,278.96c-.73,2.8,.18,5.74,2.4,7.6,.62,.52,2.55,.06,2.79-.75,1.2-4.02,3.23-7.65,6.03-10.76-.93,.14-1.86,.27-2.78,.41,1.39,4.7,2.79,9.4,4.18,14.1,.28,.96,2.63,.03,2.89-.6,2.41-5.85,4.82-11.7,7.23-17.55l-2.89,.6c.46,4.64,.93,9.28,1.39,13.91,.25,2.51,0,8.52,3.95,8.25,3.11-.21,4.18-3.82,4.63-6.4,.53-3.01,.38-6.08,.59-9.12,.21-3.12,.79-6.47,3.43-8.48l-2.5,.37c6.76,8.03-1.36,20.99,6.62,28.41,.59,.55,1.98,.04,2.5-.37,5.35-4.29,5.35-11.67,4.82-17.93-.52-6.22-1.38-14.53,4.28-18.8l-2.59,.22c3.42,6.47,4.07,13.8,4.4,20.99,.17,3.68,.26,7.37,.61,11.04,.17,1.82,.4,3.64,.74,5.43,.29,1.57,.56,3.25,1.42,4.63,1.59,2.57,5.38,1.99,6.9-.39,.9-1.4,1.24-3.14,1.56-4.75,.38-1.9,.59-3.83,.68-5.77,.37-7.81-1.11-15.56-1.14-23.36,0-1.97,.02-3.99,.34-5.94,.19-1.1,.63-3.06,1.7-3.65,.28-.16-.11,.04-.11,.04,.14,.02,.34,.11,.45,.2,.24,.19,.46,.35,.66,.59,.48,.59,.74,1.37,.93,2.1,.46,1.8,.58,3.72,.8,5.56,1.03,8.48,1.66,17.01,1.9,25.54,.12,4.26,.13,8.51,.07,12.77-.04,3.03,.48,6.72,4.09,7.3,1.4,.22,2.99-.16,4.09-1.05,1.28-1.04,1.83-2.83,2.35-4.33,1.24-3.53,1.87-7.24,2.07-10.97,.41-7.62-.76-15.19-1.64-22.74-.45-3.85-.84-7.72-.91-11.6-.07-3.66-.1-7.99,2.18-11.08,.95-1.29,2.39-2.56,4.09-2.42l-.54-.33c6.11,18.16,5.81,37.61,6.08,56.54,.08,5.72,.16,11.45,.24,17.17,0,.2,.42,.32,.54,.33,5.61,.4,7.61-5.17,8.89-9.61,1.59-5.51,2.16-11.25,2.2-16.97,.07-11.83-2.09-23.51-2.76-35.3-.17-3.01-.25-6.03-.16-9.05,.08-2.7,.02-5.77,.93-8.35,.17-.47,.37-.94,.66-1.36,.12-.18,.28-.46,.47-.57,.68-.38-.03-.02,.1,0,1.17,.12,1.93,2.01,2.25,2.92,1.01,2.84,1.55,5.92,1.98,8.9,.9,6.24,.98,12.56,.96,18.86-.02,6.69-.07,13.38-.11,20.08-.04,6.74-.07,13.47-.11,20.21-.02,3.33-.04,6.65-.05,9.98,0,1.55-.05,3.1-.02,4.64,.02,1.07,.14,2.2,.72,3.12,1.29,2.05,4.14,1.28,5.83,.21,1.93-1.22,3.37-3.03,4.39-5.05,2.37-4.73,2.53-10.47,2.73-15.65,.49-12.65-1.1-25.24-2.09-37.82-.49-6.23-.84-12.48-.71-18.73,.07-3.21,.27-6.41,.64-9.59,.18-1.55,.39-3.1,.67-4.63,.12-.68,.62-3,1.18-3.06,.5-.06,1.45,1.46,1.7,2.01,.52,1.14,.73,2.36,.84,3.6,.29,3.29,.49,6.59,.67,9.88,.34,6.59,.5,13.2,.55,19.8,.11,13.3-.18,26.6-.17,39.9,0,3.39,.03,6.77,.08,10.16,.05,3.08-.09,6.28,.28,9.34,.22,1.79,.85,4.03,2.52,5,1.89,1.1,4.47,.15,5.89-1.28,3.78-3.79,4.95-9.83,5.49-14.93,.66-6.34,.73-12.77,.66-19.14-.14-13.08-1.27-26.12-2.05-39.17-.4-6.61-.7-13.22-.75-19.84-.01-1.55,0-3.1,.01-4.65,.02-1.53-.11-3.16,.27-4.65,.12-.47,.28-.94,.5-1.38,.14-.28,.42-.56,.54-.84l.19-.21-.5,.16c.07-.16,.93,1.33,1.01,1.57,.28,.86,.48,1.75,.69,2.63,2.99,12.41,2.77,25.29,2.82,37.97,.05,13.42,.09,26.84,.14,40.26,.02,6.63,.05,13.25,.07,19.88,0,1.66,0,3.31,.02,4.97,0,1.19-.02,2.44,.41,3.57,.79,2.12,2.97,2.68,4.99,2.11,5.27-1.5,6.3-8.37,7.21-12.9,1.23-6.1,1.68-12.33,1.82-18.55,.29-12.96-.29-25.99-.97-38.94-.35-6.66-.79-13.31-1.31-19.96-.47-5.99-1.27-12.01-1.29-18.03-.01-5.32,.8-10.78,3.8-15.29-.83,.22-1.67,.45-2.5,.67,6.34,2.97,7.71,10.91,8.2,17.17,.75,9.58,.9,19.25,1.1,28.86,.41,19.92,.15,39.86-.79,59.76-.23,4.79-.75,9.64-.55,14.44,.17,4.1,1.11,8.22,4.08,11.23,.48,.49,1.77,.08,2.23-.2,6.43-3.83,6.98-11.84,8.21-18.49,1.73-9.38,3.25-18.8,4.34-28.27,2.16-18.72,2.65-37.73-.12-56.41-1.6-10.78-4.31-21.38-8.15-31.58-.34-.89-3.2-.03-2.9,.78,6.61,17.56,9.69,36.17,10.03,54.9,.34,18.6-1.89,37.15-5.09,55.45-.77,4.39-1.43,8.85-2.42,13.2-.84,3.69-2.22,7.7-5.65,9.74l2.23-.2c-2.69-2.72-3.61-6.45-3.85-10.16-.28-4.43,.21-8.92,.42-13.35,.48-9.83,.81-19.68,.96-29.52,.31-19.86,.09-39.78-1.09-59.61-.42-7.01-1.76-15.71-8.86-19.04-.66-.31-2.09,.06-2.5,.67-6.27,9.41-3.73,21.8-2.88,32.33,1.06,13.13,1.79,26.28,2.18,39.45,.37,12.69,.98,25.67-1.35,38.22-.54,2.93-1.13,6.02-2.24,8.79-.43,1.08-1.06,2.14-1.9,2.96-.18,.18-.77,.65-.78,.65-.66,.07-1.35-.85-1.6-1.35-.48-.97-.52-2.15-.53-3.21-.02-1.71-.01-3.43-.02-5.14-.01-3.31-.02-6.63-.03-9.94-.05-13.25-.09-26.51-.14-39.76-.05-12.85,.45-25.86-1.06-38.65-.37-3.14-.88-6.26-1.58-9.33-.44-1.95-.7-5.49-3.22-5.85-1.98-.28-3.77,.99-4.64,2.68-1.19,2.33-.85,5.22-.87,7.76-.09,13.09,.95,26.14,1.79,39.19,.84,13.02,1.51,26.11,.61,39.14-.38,5.45-1.1,11.3-4.28,15.91-.32,.47-.81,1.33-1.34,1.62-.36,.2-.66-.02-1.02-.34-.76-.69-1.16-1.73-1.43-2.7-.73-2.67-.48-5.68-.54-8.43-.56-26.42,.99-52.88-.95-79.26-.18-2.49-.14-5.2-1.52-7.39-1.12-1.8-2.99-2.23-4.95-1.53-2.28,.81-2.98,2.87-3.35,5.07-.52,3.07-.85,6.18-1.04,9.28-.78,12.43,.64,24.84,1.69,37.21,.53,6.25,.98,12.52,1,18.8,.02,5.7,0,11.77-1.54,17.3-.64,2.31-1.64,4.62-3.35,6.34-.37,.37-.83,.87-1.32,1.08-.43,.19-.63,.09-.96-.32-.72-.88-.77-2.27-.79-3.35-.08-6.57,.07-13.14,.11-19.71,.07-13.18,.32-26.37,.17-39.54-.07-6.28-.4-12.6-1.74-18.75-.5-2.28-.92-5.19-2.57-6.98-1.46-1.59-3.95-1.41-5.67-.34s-2.45,3.25-2.71,5.2c-.37,2.81-.47,5.68-.49,8.51-.04,5.92,.49,11.84,1.1,17.72,1.21,11.64,2.92,23.51,1.02,35.18-.44,2.69-1.07,5.35-1.93,7.94-.41,1.22-.82,2.49-1.46,3.62-.35,.63-1.31,2.34-2.16,2.28l.54,.33c-.14-9.98-.24-19.96-.44-29.94-.19-9.42-.59-18.88-2.09-28.2-.86-5.28-2.08-10.5-3.79-15.57-.07-.21-.35-.31-.54-.33-3.19-.27-6.34,1.09-8.35,3.59-2.18,2.71-2.57,6.33-2.64,9.69-.15,7.7,1.15,15.34,1.98,22.97,.82,7.56,1.25,15.37-.94,22.76-.25,.83-.53,1.66-.84,2.47-.27,.7-.62,2.13-1.27,2.58-.19,.14-.32,.13-.67-.01-.34-.14-.64-.34-.92-.57-.67-.56-1.05-1.34-1.28-2.17-.51-1.83-.3-3.82-.28-5.69,.02-2.14,.02-4.27,0-6.41-.1-8.46-.6-16.91-1.47-25.32-.22-2.12-.47-4.24-.74-6.36-.21-1.63-.3-3.38-.93-4.92-1.08-2.61-3.91-3.16-6.26-1.76-2.63,1.56-2.93,4.95-3.08,7.69-.21,3.86,.02,7.72,.34,11.57,.63,7.72,1.7,15.85-.65,23.4-.22,.72-.52,1.32-.93,1.94-.16,.25-.35,.15-.12,.2,.41,.08-.2-.27-.19-.25-.33-.36-.66-.63-.91-1.07-.78-1.35-1.01-3.04-1.29-4.55-.66-3.61-.91-7.29-1.08-10.95-.33-7.14-.31-14.48-2.54-21.36-.55-1.71-1.26-3.36-2.1-4.95-.42-.8-2.07-.17-2.59,.22-5.48,4.13-5.59,11.58-5.08,17.81s1.5,14.49-4.02,18.92c.83-.12,1.66-.25,2.5-.37-3.85-3.58-3.63-9.22-3.54-14.06,.09-4.93,.29-10.34-3.08-14.35-.51-.61-2.03,.02-2.5,.37-4.29,3.26-4.03,8.89-4.21,13.75-.1,2.68-.28,5.48-1.41,7.95-.14,.3-.29,.59-.46,.87-.04,.06-.25,.31-.25,.38l-.09,.13,1.14-.2s-.63-.5-.68-.56c-.28-.33-.49-.72-.65-1.12-.68-1.64-.6-3.66-.77-5.41-.48-4.8-.96-9.61-1.44-14.41-.1-.96-2.65,.02-2.89,.6-2.41,5.85-4.82,11.7-7.23,17.55,.96-.2,1.93-.4,2.89-.6-1.39-4.7-2.79-9.4-4.18-14.1-.28-.95-2.41,0-2.78,.41-2.89,3.21-5.01,7-6.24,11.14,.93-.25,1.86-.5,2.79-.75-2.03-1.7-2.9-4.37-2.23-6.94,.23-.89-2.65-.47-2.88,.42h0Z"></path></g></svg>